<svg width="22" height="22" viewBox="0 0 22 22" fill="none" xmlns="http://www.w3.org/2000/svg">
<path fill-rule="evenodd" clip-rule="evenodd" d="M18.6989 8.38391L19.3592 9.04391C19.8819 9.55725 20.1661 10.2539 20.1661 10.9872C20.1753 11.7206 19.891 12.4182 19.3775 12.9397C19.3714 12.9465 19.3653 12.9524 19.3592 12.9583C19.3561 12.9612 19.3531 12.9642 19.35 12.9672L18.6989 13.6181C18.4422 13.8747 18.2954 14.2231 18.2954 14.5907V15.5339C18.2954 17.0556 17.0575 18.294 15.5353 18.294H14.5908C14.224 18.294 13.8755 18.4397 13.6188 18.6964L12.9585 19.3564C12.4175 19.8982 11.7114 20.1631 11.0053 20.1631C10.2992 20.1631 9.59313 19.8982 9.0521 19.3665L8.38269 18.6964C8.12593 18.4397 7.77747 18.294 7.41067 18.294H6.46616C4.94394 18.294 3.70599 17.0556 3.70599 15.5339V14.5907C3.70599 14.2231 3.55927 13.8747 3.30251 13.6089L2.64227 12.9581C1.56939 11.8865 1.56022 10.1347 2.6331 9.054L3.30251 8.38391C3.55927 8.12725 3.70599 7.77891 3.70599 7.40308V6.46808C3.70599 4.94641 4.94394 3.70983 6.46616 3.70983H7.41067C7.77747 3.70983 8.12593 3.56225 8.38269 3.30558L9.04293 2.64558C10.1158 1.56483 11.8673 1.56483 12.9493 2.63733L13.6188 3.30558C13.8755 3.56225 14.224 3.70983 14.5908 3.70983H15.5353C17.0575 3.70983 18.2954 4.94641 18.2954 6.46808V7.41316C18.2954 7.77891 18.4422 8.12725 18.6989 8.38391ZM8.63945 14.1589C8.85953 14.1589 9.06127 14.0764 9.20799 13.9206L13.9214 9.20983C14.2331 8.89816 14.2331 8.38391 13.9214 8.07225C13.6096 7.7615 13.1052 7.7615 12.7935 8.07225L8.08008 12.7839C7.7683 13.0956 7.7683 13.6089 8.08008 13.9206C8.2268 14.0764 8.42854 14.1589 8.63945 14.1589ZM12.555 13.3522C12.555 13.8014 12.9127 14.1589 13.362 14.1589C13.8022 14.1589 14.1598 13.8014 14.1598 13.3522C14.1598 12.9132 13.8022 12.5547 13.362 12.5547C12.9127 12.5547 12.555 12.9132 12.555 13.3522ZM8.64862 7.84308C9.08878 7.84308 9.44641 8.20058 9.44641 8.64058C9.44641 9.09066 9.08878 9.44725 8.64862 9.44725C8.20846 9.44725 7.84166 9.09066 7.84166 8.64058C7.84166 8.20058 8.20846 7.84308 8.64862 7.84308Z" fill="black"/>
</svg>
