<svg width="22" height="22" viewBox="0 0 22 22" fill="none" xmlns="http://www.w3.org/2000/svg">
<path d="M9.43809 15.2576C9.43913 14.2928 9.74935 13.3495 10.3302 12.5449C10.9111 11.7403 11.737 11.1098 12.7054 10.7318C13.6738 10.3538 14.742 10.2449 15.7774 10.4187C16.8127 10.5924 17.7696 11.0411 18.5291 11.7091V4.27273C18.5291 3.66996 18.2679 3.09189 17.8029 2.66567C17.3379 2.23945 16.7073 2 16.0497 2L6.13227 2C5.03673 2.0012 3.98643 2.40067 3.21176 3.11077C2.4371 3.82088 2.00131 4.78364 2 5.78788V16.3939C2.00131 17.3982 2.4371 18.3609 3.21176 19.071C3.98643 19.7812 5.03673 20.1806 6.13227 20.1818H14.81C13.3853 20.1818 12.0189 19.663 11.0115 18.7395C10.0041 17.8161 9.43809 16.5636 9.43809 15.2576V15.2576ZM6.13227 7.30303C6.13227 7.10211 6.21934 6.90942 6.37433 6.76734C6.52932 6.62527 6.73954 6.54545 6.95873 6.54545H13.5704C13.7895 6.54545 13.9998 6.62527 14.1548 6.76734C14.3097 6.90942 14.3968 7.10211 14.3968 7.30303C14.3968 7.50395 14.3097 7.69664 14.1548 7.83872C13.9998 7.98079 13.7895 8.06061 13.5704 8.06061H6.95873C6.73954 8.06061 6.52932 7.98079 6.37433 7.83872C6.21934 7.69664 6.13227 7.50395 6.13227 7.30303ZM19.9398 19.9598C19.7849 20.1019 19.5747 20.1817 19.3555 20.1817C19.1364 20.1817 18.9262 20.1019 18.7712 19.9598L16.782 18.1364C16.1928 18.481 15.5089 18.665 14.81 18.6667C14.0745 18.6667 13.3554 18.4667 12.7439 18.0921C12.1323 17.7175 11.6556 17.1851 11.3741 16.5622C11.0926 15.9392 11.019 15.2538 11.1625 14.5925C11.306 13.9312 11.6602 13.3238 12.1803 12.847C12.7004 12.3702 13.3631 12.0455 14.0845 11.914C14.8059 11.7824 15.5537 11.85 16.2333 12.108C16.9128 12.366 17.4937 12.803 17.9023 13.3636C18.311 13.9242 18.5291 14.5833 18.5291 15.2576C18.5272 15.8982 18.3266 16.5251 17.9506 17.0652L19.9398 18.8886C20.0948 19.0307 20.1818 19.2234 20.1818 19.4242C20.1818 19.6251 20.0948 19.8178 19.9398 19.9598Z" fill="black"/>
</svg>
