<svg width="49" height="48" viewBox="0 0 49 48" fill="none" xmlns="http://www.w3.org/2000/svg">
<rect x="1.29688" y="0.5" width="46.4" height="46.4" rx="14.5" fill="white" stroke="#D7D7D7"/>
<path d="M21.2372 21.3298C22.5461 21.3298 23.6072 20.2688 23.6072 18.9598C23.6072 17.6509 22.5461 16.5898 21.2372 16.5898C19.9283 16.5898 18.8672 17.6509 18.8672 18.9598C18.8672 20.2688 19.9283 21.3298 21.2372 21.3298Z" stroke="#292D32" stroke-width="1.5" stroke-linecap="round" stroke-linejoin="round"/>
<path d="M25.9764 11.8496H21.2364C15.3114 11.8496 12.9414 14.2196 12.9414 20.1446V27.2546C12.9414 33.1796 15.3114 35.5496 21.2364 35.5496H28.3464C34.2714 35.5496 36.6414 33.1796 36.6414 27.2546V21.3296" stroke="#292D32" stroke-width="1.5" stroke-linecap="round" stroke-linejoin="round"/>
<path d="M29.2363 15.4062H35.7538" stroke="#292D32" stroke-width="1.5" stroke-linecap="round"/>
<path d="M32.4941 18.664V12.1465" stroke="#292D32" stroke-width="1.5" stroke-linecap="round"/>
<path d="M13.7363 31.936L19.5784 28.0136C20.5145 27.3856 21.8654 27.4567 22.7068 28.1795L23.0978 28.5232C24.0221 29.3171 25.5152 29.3171 26.4395 28.5232L31.3691 24.2927C32.2934 23.4988 33.7865 23.4988 34.7108 24.2927L36.6424 25.9517" stroke="#292D32" stroke-width="1.5" stroke-linecap="round" stroke-linejoin="round"/>
</svg>
