<svg width="24" height="24" viewBox="0 0 24 24" fill="none" xmlns="http://www.w3.org/2000/svg">
<path d="M14 22.7505H10C4.57 22.7505 2.25 20.4305 2.25 15.0005V9.00049C2.25 3.57049 4.57 1.25049 10 1.25049H14C19.43 1.25049 21.75 3.57049 21.75 9.00049V15.0005C21.75 20.4305 19.43 22.7505 14 22.7505ZM10 2.75049C5.39 2.75049 3.75 4.39049 3.75 9.00049V15.0005C3.75 19.6105 5.39 21.2505 10 21.2505H14C18.61 21.2505 20.25 19.6105 20.25 15.0005V9.00049C20.25 4.39049 18.61 2.75049 14 2.75049H10Z" fill="#292D32"/>
<path d="M15 10.8306H9C7.76 10.8306 6.75 9.82057 6.75 8.58057V7.58057C6.75 6.34057 7.76 5.33057 9 5.33057H15C16.24 5.33057 17.25 6.34057 17.25 7.58057V8.58057C17.25 9.82057 16.24 10.8306 15 10.8306ZM9 6.83057C8.59 6.83057 8.25 7.17057 8.25 7.58057V8.58057C8.25 8.99057 8.59 9.33057 9 9.33057H15C15.41 9.33057 15.75 8.99057 15.75 8.58057V7.58057C15.75 7.17057 15.41 6.83057 15 6.83057H9Z" fill="#292D32"/>
<path d="M8.15016 14.9203C8.02016 14.9203 7.89016 14.8903 7.77016 14.8403C7.65016 14.7903 7.54016 14.7203 7.45016 14.6303C7.26016 14.4403 7.16016 14.1903 7.16016 13.9203C7.16016 13.7903 7.18016 13.6603 7.23016 13.5403C7.28016 13.4103 7.35016 13.3103 7.45016 13.2103C7.49016 13.1703 7.54016 13.1203 7.60016 13.0903C7.65016 13.0503 7.71016 13.0203 7.77016 13.0003C7.83016 12.9703 7.90016 12.9503 7.96016 12.9403C8.28016 12.8703 8.63016 12.9803 8.86016 13.2103C8.95016 13.3003 9.03016 13.4103 9.08016 13.5403C9.13016 13.6603 9.16016 13.7903 9.16016 13.9203C9.16016 14.1903 9.05016 14.4403 8.86016 14.6303C8.67016 14.8203 8.42016 14.9203 8.15016 14.9203Z" fill="#292D32"/>
<path d="M12.1602 14.9204C11.8902 14.9204 11.6402 14.8204 11.4502 14.6304C11.2602 14.4404 11.1602 14.1904 11.1602 13.9204C11.1602 13.7904 11.1802 13.6604 11.2302 13.5404C11.2802 13.4104 11.3502 13.3104 11.4502 13.2104C11.4902 13.1704 11.5402 13.1204 11.6002 13.0904C11.6502 13.0504 11.7102 13.0204 11.7702 13.0004C11.8302 12.9704 11.9002 12.9504 11.9602 12.9404C12.1502 12.9004 12.3502 12.9204 12.5402 13.0004C12.6602 13.0504 12.7702 13.1204 12.8602 13.2104C12.9502 13.3104 13.0302 13.4104 13.0802 13.5404C13.1302 13.6604 13.1602 13.7904 13.1602 13.9204C13.1602 14.1904 13.0502 14.4404 12.8602 14.6304C12.6702 14.8204 12.4202 14.9204 12.1602 14.9204Z" fill="#292D32"/>
<path d="M16.1502 14.9206C16.0202 14.9206 15.8902 14.8906 15.7702 14.8406C15.6502 14.7906 15.5402 14.7206 15.4502 14.6306C15.3502 14.5306 15.2802 14.4206 15.2302 14.3006C15.1802 14.1806 15.1602 14.0506 15.1602 13.9206C15.1602 13.7906 15.1802 13.6606 15.2302 13.5406C15.2802 13.4106 15.3502 13.3106 15.4502 13.2106C15.8202 12.8406 16.4902 12.8406 16.8602 13.2106C17.0502 13.4006 17.1602 13.6606 17.1602 13.9206C17.1602 14.1906 17.0502 14.4406 16.8602 14.6306C16.6802 14.8106 16.4302 14.9206 16.1502 14.9206Z" fill="#292D32"/>
<path d="M8.16039 18.9204C7.89039 18.9204 7.64039 18.8204 7.45039 18.6304C7.26039 18.4404 7.15039 18.1904 7.15039 17.9204C7.15039 17.6604 7.26039 17.4004 7.45039 17.2104C7.49039 17.1704 7.55039 17.1204 7.60039 17.0904C7.65039 17.0504 7.71039 17.0204 7.77039 17.0004C7.83039 16.9704 7.90039 16.9504 7.96039 16.9404C8.29039 16.8804 8.63039 16.9804 8.86039 17.2104C8.91039 17.2604 8.95039 17.3104 8.99039 17.3604C9.02039 17.4204 9.05039 17.4804 9.08039 17.5404C9.10039 17.6004 9.12039 17.6604 9.14039 17.7204C9.15039 17.7904 9.16039 17.8504 9.16039 17.9204C9.16039 18.1904 9.05039 18.4404 8.86039 18.6304C8.67039 18.8204 8.42039 18.9204 8.16039 18.9204Z" fill="#292D32"/>
<path d="M12.1604 18.9204C11.8904 18.9204 11.6404 18.8204 11.4504 18.6304C11.2604 18.4404 11.1504 18.1904 11.1504 17.9204C11.1504 17.6604 11.2604 17.4004 11.4504 17.2104C11.6804 16.9804 12.0304 16.8804 12.3504 16.9404C12.4104 16.9504 12.4804 16.9704 12.5404 17.0004C12.6004 17.0204 12.6604 17.0504 12.7104 17.0904C12.7604 17.1204 12.8104 17.1704 12.8604 17.2104C13.0504 17.4004 13.1504 17.6604 13.1504 17.9204C13.1504 18.1904 13.0504 18.4404 12.8604 18.6304C12.6704 18.8204 12.4204 18.9204 12.1604 18.9204Z" fill="#292D32"/>
<path d="M16.1502 18.9207C15.8902 18.9207 15.6402 18.8207 15.4502 18.6307C15.2602 18.4407 15.1602 18.1907 15.1602 17.9207C15.1602 17.6607 15.2602 17.4007 15.4502 17.2107C15.5402 17.1207 15.6502 17.0507 15.7702 17.0007C16.1402 16.8507 16.5902 16.9307 16.8602 17.2107C17.0502 17.4007 17.1502 17.6607 17.1502 17.9207C17.1502 18.1907 17.0502 18.4407 16.8602 18.6307C16.7702 18.7207 16.6602 18.7907 16.5402 18.8407C16.4202 18.8907 16.2902 18.9207 16.1502 18.9207Z" fill="#292D32"/>
</svg>
