<svg width="24" height="24" viewBox="0 0 24 24" fill="none" xmlns="http://www.w3.org/2000/svg">
<path d="M20 11.9998V7.87129C20 6.32489 18.7464 5.07129 17.2 5.07129H6.8C5.2536 5.07129 4 6.32489 4 7.87129V18.2713C4 19.8177 5.2536 21.0713 6.8 21.0713H17.2C18.7464 21.0713 20 19.8177 20 18.2713V17.0713V15.9998" stroke="#96A0B5" stroke-width="1.5" stroke-linecap="round"/>
<path d="M8.57129 6.21443V3.92871" stroke="#96A0B5" stroke-width="1.5" stroke-linecap="round"/>
<path d="M15.4287 6.21443V3.92871" stroke="#96A0B5" stroke-width="1.5" stroke-linecap="round"/>
<path d="M19.4286 18.2144H10.2857C6.81422 18.2144 4 15.4002 4 11.9287V11.9287" stroke="#96A0B5" stroke-width="1.5" stroke-linecap="round"/>
<path d="M8 10H8.5" stroke="#96A0B5" stroke-width="1.5" stroke-linecap="round"/>
<path d="M12 10H12.5" stroke="#96A0B5" stroke-width="1.5" stroke-linecap="round"/>
<path d="M16 10H16.5" stroke="#96A0B5" stroke-width="1.5" stroke-linecap="round"/>
<path d="M8 14H8.5" stroke="#96A0B5" stroke-width="1.5" stroke-linecap="round"/>
<path d="M12 14H12.5" stroke="#96A0B5" stroke-width="1.5" stroke-linecap="round"/>
<path d="M16 14H16.5" stroke="#96A0B5" stroke-width="1.5" stroke-linecap="round"/>
</svg>
