<svg width="24" height="24" viewBox="0 0 24 24" fill="none" xmlns="http://www.w3.org/2000/svg">
<path fill-rule="evenodd" clip-rule="evenodd" d="M12 3.5C7.313 3.5 3.5 7.313 3.5 12C3.5 16.687 7.313 20.5 12 20.5C16.687 20.5 20.5 16.687 20.5 12C20.5 7.313 16.687 3.5 12 3.5ZM12 22C6.486 22 2 17.514 2 12C2 6.486 6.486 2 12 2C17.514 2 22 6.486 22 12C22 17.514 17.514 22 12 22Z" fill="#1C8F3C"/>
<path fill-rule="evenodd" clip-rule="evenodd" d="M10.8132 15.1227C10.6222 15.1227 10.4292 15.0497 10.2832 14.9027L7.9092 12.5297C7.6162 12.2367 7.6162 11.7627 7.9092 11.4697C8.2022 11.1767 8.6762 11.1767 8.9692 11.4697L10.8132 13.3117L15.0292 9.0967C15.3222 8.8037 15.7962 8.8037 16.0892 9.0967C16.3822 9.3897 16.3822 9.8637 16.0892 10.1567L11.3432 14.9027C11.1972 15.0497 11.0052 15.1227 10.8132 15.1227Z" fill="#1C8F3C"/>
</svg>
