<svg width="90" height="90" viewBox="0 0 90 90" fill="none" xmlns="http://www.w3.org/2000/svg">
<g filter="url(#filter0_d_29_2405)">
<circle cx="45" cy="40" r="30" fill="url(#paint0_linear_29_2405)"/>
</g>
<path d="M53.8995 42.1404V31.9229H51.6692L50.3407 26.962C50.1256 26.165 49.3987 25.6066 48.5738 25.6066C48.4146 25.6066 48.2554 25.6283 48.1002 25.6697L43.0815 27.0149L37.3351 23.6969C37.0642 23.5399 36.7541 23.457 36.4397 23.457C35.8007 23.457 35.2062 23.8002 34.8847 24.3533L30.5155 31.923H28.9688V47.6874H47.573C48.4414 44.8193 50.8888 42.6375 53.8997 42.1403L53.8995 42.1404ZM44.6525 27.9973L48.449 26.9799C48.4904 26.9696 48.5318 26.9632 48.573 26.9632C48.787 26.9632 48.9752 27.1091 49.0321 27.3147L50.2657 31.924H43.9341L44.9472 30.1664C45.3659 29.4457 45.2181 28.5587 44.6526 27.9973L44.6525 27.9973ZM36.0587 25.0318C36.1363 24.8964 36.2841 24.8117 36.4402 24.8117C36.5166 24.8117 36.5911 24.8324 36.6584 24.8707L43.6157 28.8874C43.8257 29.0083 43.898 29.2782 43.7759 29.4872L42.3708 31.9231H32.0807L36.0587 25.0318ZM41.435 44.9637C37.5414 44.9637 34.3157 42.0996 33.7271 38.3707C33.3063 38.077 33.0302 37.591 33.0302 37.0379C33.0302 36.1416 33.758 35.4126 34.6555 35.4126C35.5539 35.4126 36.2817 36.1416 36.2817 37.0379C36.2817 37.6686 35.9188 38.2094 35.3947 38.4792C36.0056 41.2552 38.4789 43.3387 41.4349 43.3387C44.3889 43.3387 46.864 41.2543 47.4741 38.4792C46.9497 38.2093 46.588 37.6696 46.588 37.0379C46.588 36.1416 47.3158 35.4126 48.2133 35.4126C49.1117 35.4126 49.8386 36.1416 49.8386 37.0379C49.8386 37.591 49.5616 38.077 49.1417 38.3707C48.5534 42.0999 45.3266 44.9637 41.435 44.9637H41.435Z" fill="white"/>
<path d="M47.2824 49.1094H28.9688V50.8744C28.9688 52.3705 30.1816 53.5843 31.6777 53.5843H48.0982C47.5482 52.5028 47.2308 51.2838 47.2308 49.9893C47.2317 49.6916 47.2505 49.3979 47.2824 49.1094L47.2824 49.1094Z" fill="white"/>
<path d="M55.1985 43.4385C51.5807 43.4385 48.6445 46.3727 48.6445 49.9912C48.6445 53.61 51.5809 56.544 55.1985 56.544C58.8163 56.544 61.7507 53.6097 61.7507 49.9912C61.7507 46.3724 58.8164 43.4385 55.1985 43.4385ZM59.4075 47.413L55.7143 53.1295L55.6914 53.1657C55.3201 53.7426 54.55 53.907 53.9731 53.5348C53.8179 53.4334 53.6899 53.2992 53.5968 53.1533L50.984 49.0052C50.7618 48.6497 50.8681 48.1832 51.2218 47.959C51.5186 47.7707 51.9032 47.8195 52.1472 48.053L54.5871 50.3773L58.2235 46.4867C58.5089 46.1816 58.9844 46.1673 59.2895 46.4505C59.5585 46.7057 59.6011 47.111 59.4076 47.413L59.4075 47.413Z" fill="white"/>
<defs>
<filter id="filter0_d_29_2405" x="0" y="0" width="90" height="90" filterUnits="userSpaceOnUse" color-interpolation-filters="sRGB">
<feFlood flood-opacity="0" result="BackgroundImageFix"/>
<feColorMatrix in="SourceAlpha" type="matrix" values="0 0 0 0 0 0 0 0 0 0 0 0 0 0 0 0 0 0 127 0" result="hardAlpha"/>
<feOffset dy="5"/>
<feGaussianBlur stdDeviation="7.5"/>
<feComposite in2="hardAlpha" operator="out"/>
<feColorMatrix type="matrix" values="0 0 0 0 1 0 0 0 0 0.819608 0 0 0 0 0.176471 0 0 0 0.3 0"/>
<feBlend mode="normal" in2="BackgroundImageFix" result="effect1_dropShadow_29_2405"/>
<feBlend mode="normal" in="SourceGraphic" in2="effect1_dropShadow_29_2405" result="shape"/>
</filter>
<linearGradient id="paint0_linear_29_2405" x1="45" y1="10" x2="45" y2="70" gradientUnits="userSpaceOnUse">
<stop stop-color="#FFD572"/>
<stop offset="1" stop-color="#FEBD38"/>
</linearGradient>
</defs>
</svg>
