<svg width="307" height="139" viewBox="0 0 307 139" fill="none" xmlns="http://www.w3.org/2000/svg">
<path d="M81.1991 7.91211V20.0807H79.9115C77.1567 17.0344 74.3809 14.7191 71.5843 13.1392C68.7835 11.5593 65.389 10.5131 61.401 9.99623C57.4087 9.471 52.1373 9.20628 45.5825 9.20628V96.1176C45.5825 100.803 46.034 103.811 46.937 105.143C47.8399 106.479 48.4795 107.143 48.8599 107.143V108.437H32.1887V107.143C32.6652 107.143 33.3299 106.479 34.1785 105.143C35.0355 103.811 35.4661 100.803 35.4661 96.1176V9.20628C29.0116 9.20628 23.7653 9.471 19.7312 9.99623C15.693 10.5131 12.2944 11.5593 9.53119 13.1392C6.77634 14.7191 4.02149 17.0344 1.27083 20.0807H0V7.91211H81.1991Z" fill="black"/>
<path d="M173.507 40.6946V39.4004H185.614V40.6946C184.564 40.6946 183.043 41.7702 181.049 43.9216C179.063 46.0645 176.693 50.4261 173.942 57.0146L157.405 97.1172L162.103 108.429H151.418L132.339 62.04L117.808 97.1172L122.507 108.429H111.822L88.5961 52.2917C87.4591 49.4344 86.1757 46.7915 84.7502 44.3586C83.3205 41.9173 82.0414 40.6946 80.9043 40.6946V39.4004H97.2913V40.6946C96.6224 40.6946 96.3298 41.4845 96.4218 43.0644C96.5221 44.6359 97.4292 47.5184 99.1473 51.7203L117.089 95.4028L131.62 60.4601L128.343 52.2917C127.106 49.4344 125.772 46.7915 124.346 44.3586C122.929 41.9173 121.654 40.6946 120.517 40.6946V39.4004H137.038V40.6946C136.369 40.6946 136.056 41.4845 136.102 43.0644C136.156 44.6359 137.038 47.5184 138.744 51.7203L156.702 95.4028L173.223 55.586C175.117 51.0059 176.108 47.3797 176.2 44.7115C176.3 42.035 175.401 40.6946 173.507 40.6946Z" fill="black"/>
<path d="M185.041 45.6986L184.606 44.5557L198 39.3958V96.1042C198 100.789 198.452 103.798 199.355 105.13C200.258 106.466 200.897 107.13 201.278 107.13V108.424H184.757V107.13C185.225 107.13 185.911 106.466 186.814 105.13C187.717 103.798 188.168 100.789 188.168 96.1042V51.867C187.788 49.2912 187.265 47.6231 186.596 46.8584C185.936 46.0852 185.417 45.6986 185.041 45.6986ZM192.014 27.7987C190.208 27.7987 188.64 27.1348 187.315 25.7986C185.986 24.4666 185.325 22.8909 185.325 21.0757C185.325 19.1597 185.986 17.5588 187.315 16.2688C188.64 14.983 190.208 14.3359 192.014 14.3359C193.908 14.3359 195.496 14.983 196.78 16.2688C198.059 17.5588 198.703 19.1597 198.703 21.0757C198.703 22.8909 198.059 24.4666 196.78 25.7986C195.496 27.1348 193.908 27.7987 192.014 27.7987Z" fill="black"/>
<path d="M250.29 65.1819H249.571C249.659 62.7952 248.919 60.1733 247.347 57.316C245.784 54.4503 243.702 51.7485 241.093 49.2148C238.485 46.6853 235.609 44.6558 232.465 43.1305C229.33 41.6094 226.199 40.9203 223.068 41.0632C219.932 41.1977 217.086 42.6053 214.523 45.2819C212.525 47.2904 211.601 49.6518 211.747 52.3746C211.889 55.089 213.006 57.5429 215.092 59.7363C216.705 61.3624 219.105 62.9885 222.282 64.6104C225.467 66.2366 229.673 67.7156 234.89 69.0476C238.79 70.1023 242.067 71.346 244.722 72.7789C247.385 74.2033 249.571 75.7286 251.277 77.3505C254.027 80.1195 255.641 83.2247 256.109 86.6618C256.586 90.1031 255.879 93.5361 253.985 96.9648C251.987 100.507 249.471 103.133 246.427 104.847C243.392 106.856 239.789 108.285 235.609 109.133C231.428 109.995 227.532 110.331 223.92 110.142C220.509 109.86 216.923 109.1 213.169 107.856C209.423 106.612 205.502 104.797 201.413 102.41L200.276 101.704L203.688 85.8046L204.841 86.0904C204.649 87.2333 205.029 88.7627 205.978 90.6788C206.923 92.5864 208.06 94.4437 209.39 96.2589C210.727 98.0741 211.818 99.364 212.667 100.125C214.573 101.94 216.684 103.419 219.004 104.562C221.333 105.705 223.686 106.52 226.061 106.999C228.435 107.469 230.785 107.663 233.117 107.57C235.446 107.469 237.653 107.133 239.739 106.562C240.876 106.285 241.938 105.932 242.933 105.503C243.936 105.066 244.91 104.562 245.859 103.99C246.904 103.23 247.765 102.511 248.434 101.839C249.09 101.078 249.68 100.272 250.206 99.4187C250.729 98.5573 251.084 97.6455 251.277 96.6791C251.377 96.0194 251.398 95.3303 251.344 94.6117C251.298 93.8974 251.18 93.1999 250.992 92.5276C250.131 90.0527 248.493 88.0736 246.076 86.5946C243.656 85.1155 240.88 83.9012 237.749 82.9474C234.614 81.9851 231.433 81.0271 228.201 80.0733C223.64 78.7413 219.648 76.8589 216.229 74.426C212.817 71.9847 210.276 69.1442 208.604 65.9046C206.94 62.6566 206.447 59.2152 207.115 55.5848C207.784 51.9544 209.966 48.282 213.67 44.5591C216.132 41.9834 219.36 40.3657 223.352 39.7018C227.34 39.0295 231.449 39.0547 235.676 39.769C239.898 40.4875 243.673 41.6599 246.996 43.2818C250.328 44.8953 252.614 46.7567 253.852 48.8618L250.29 65.1819Z" fill="black"/>
<path d="M255.404 40.404V39.3955C255.973 39.3955 256.993 39.2359 258.464 38.9081C259.936 38.572 261.499 37.8114 263.163 36.6223C264.823 35.4248 266.223 33.4919 267.36 30.8237C268.506 28.1472 269.082 24.4663 269.082 19.7812H279.048C279.048 25.5084 277.882 29.9245 275.554 33.0255C273.233 36.1307 269.839 38.2526 265.37 39.3955H286.74V40.404H274.35V81.7839C274.35 83.5109 274.442 85.5656 274.634 87.9523C274.822 90.3389 275.223 92.7508 275.838 95.1795C276.461 97.6124 277.364 99.7595 278.547 101.617C279.738 103.478 281.331 104.743 283.329 105.415C286.08 106.281 288.646 106.02 291.021 104.642C293.395 103.255 295.506 101.365 297.358 98.978C299.206 96.5913 300.606 94.3475 301.555 92.2382C302.132 90.9062 302.709 89.4986 303.278 88.0195C303.846 86.5405 304.319 84.99 304.699 83.3638H305.987C305.506 85.0782 305.004 86.7253 304.482 88.3052C303.955 89.8851 303.365 91.3432 302.709 92.6752C301.56 95.2551 300.059 97.8098 298.211 100.339C296.359 102.86 294.173 104.936 291.656 106.558C289.148 108.184 286.322 108.995 283.179 108.995C278.049 108.995 274.132 107.634 271.423 104.911C268.723 102.188 266.875 98.7343 265.872 94.5408C264.877 90.3389 264.384 86.0866 264.384 81.7839V49.1439C264.384 46.7572 263.573 44.7067 261.959 42.9923C260.341 41.2696 258.155 40.404 255.404 40.404Z" fill="black"/>
<path d="M121.598 129.974H119.842L119.825 121.537L116.28 128.798H115.043L111.498 121.537V129.974H109.709V118.68H111.966L115.662 126.176L119.357 118.68H121.598V129.974Z" fill="black"/>
<path d="M138.946 120.394H132.826V123.436H138.311V125.151H132.826V128.26H139.147V129.974H130.92V118.68H138.946V120.394Z" fill="black"/>
<path d="M147.812 118.68H152.427C154.107 118.68 155.495 119.213 156.59 120.276C157.681 121.344 158.229 122.692 158.229 124.327C158.229 125.966 157.677 127.315 156.574 128.378C155.478 129.445 154.082 129.974 152.376 129.974H147.812V118.68ZM149.718 120.394V128.26H152.477C153.58 128.26 154.492 127.899 155.219 127.167C155.955 126.428 156.323 125.487 156.323 124.344C156.323 123.201 155.942 122.26 155.186 121.52C154.437 120.772 153.505 120.394 152.393 120.394H149.718Z" fill="black"/>
<path d="M168.52 129.974H166.614V118.68H168.52V129.974Z" fill="black"/>
<path d="M185.078 127.42H179.41L178.339 129.974H176.366L181.332 118.68H183.272L188.188 129.974H186.165L185.078 127.42ZM184.359 125.739L182.235 120.713L180.129 125.739H184.359Z" fill="black"/>
</svg>
