<svg width="20" height="20" viewBox="0 0 20 20" fill="none" xmlns="http://www.w3.org/2000/svg">
<path d="M9.9712 15.8333C10.2994 15.8342 10.6245 15.7704 10.928 15.6454C11.2314 15.5204 11.5072 15.3368 11.7395 15.105L15.0054 11.8392L13.827 10.6608L10.7987 13.6883L10.777 1.01328e-06H9.11037L9.13204 13.6767L6.1162 10.6608L4.93787 11.8392L8.2037 15.105C8.43589 15.3367 8.71155 15.5204 9.01485 15.6454C9.31816 15.7703 9.64316 15.8342 9.9712 15.8333V15.8333Z" fill="black"/>
<path d="M18.3333 13.333V17.4997C18.3333 17.7207 18.2455 17.9326 18.0893 18.0889C17.933 18.2452 17.721 18.333 17.5 18.333H2.5C2.27899 18.333 2.06702 18.2452 1.91074 18.0889C1.75446 17.9326 1.66667 17.7207 1.66667 17.4997V13.333H0V17.4997C0 18.1627 0.263392 18.7986 0.732233 19.2674C1.20107 19.7363 1.83696 19.9997 2.5 19.9997H17.5C18.163 19.9997 18.7989 19.7363 19.2678 19.2674C19.7366 18.7986 20 18.1627 20 17.4997V13.333H18.3333Z" fill="black"/>
</svg>
