<svg width="24" height="24" viewBox="0 0 24 24" fill="none" xmlns="http://www.w3.org/2000/svg">
<mask id="path-1-inside-1_1064_35448" fill="white">
<path d="M12 2C17.5191 2 22 6.48093 22 12C22 17.5191 17.5191 22 12 22C6.48093 22 2 17.5191 2 12C2 6.48093 6.48093 2 12 2ZM12 3.39535C7.25116 3.39535 3.39535 7.25116 3.39535 12C3.39535 16.7488 7.25116 20.6047 12 20.6047C16.7488 20.6047 20.6047 16.7488 20.6047 12C20.6047 7.25116 16.7488 3.39535 12 3.39535Z"/>
</mask>
<path d="M12 2C17.5191 2 22 6.48093 22 12C22 17.5191 17.5191 22 12 22C6.48093 22 2 17.5191 2 12C2 6.48093 6.48093 2 12 2ZM12 3.39535C7.25116 3.39535 3.39535 7.25116 3.39535 12C3.39535 16.7488 7.25116 20.6047 12 20.6047C16.7488 20.6047 20.6047 16.7488 20.6047 12C20.6047 7.25116 16.7488 3.39535 12 3.39535Z" fill="#96A0B5"/>
<path d="M12 23.3333C5.737 23.3333 0.666667 18.263 0.666667 12H43.3333C43.3333 -5.30114 29.3011 -19.3333 12 -19.3333V23.3333ZM0.666667 12C0.666667 5.737 5.737 0.666667 12 0.666667V43.3333C29.3011 43.3333 43.3333 29.3011 43.3333 12H0.666667ZM12 0.666667C18.263 0.666667 23.3333 5.737 23.3333 12H-19.3333C-19.3333 29.3011 -5.30114 43.3333 12 43.3333V0.666667ZM23.3333 12C23.3333 18.263 18.263 23.3333 12 23.3333V-19.3333C-5.30114 -19.3333 -19.3333 -5.30114 -19.3333 12H23.3333ZM12 -17.938C-4.53091 -17.938 -17.938 -4.53091 -17.938 12H24.7287C24.7287 19.0332 19.0332 24.7287 12 24.7287V-17.938ZM-17.938 12C-17.938 28.5309 -4.53091 41.938 12 41.938V-0.728682C19.0332 -0.728682 24.7287 4.96676 24.7287 12H-17.938ZM12 41.938C28.5309 41.938 41.938 28.5309 41.938 12H-0.728682C-0.728682 4.96676 4.96676 -0.728682 12 -0.728682V41.938ZM41.938 12C41.938 -4.53091 28.5309 -17.938 12 -17.938V24.7287C4.96676 24.7287 -0.728682 19.0332 -0.728682 12H41.938Z" fill="#96A0B5" mask="url(#path-1-inside-1_1064_35448)"/>
<mask id="path-3-inside-2_1064_35448" fill="white">
<path d="M14.7456 9.76781C14.5972 9.8691 14.4154 9.9093 14.2381 9.88005C14.0608 9.8508 13.9016 9.75435 13.7935 9.61074C13.6855 9.46714 13.637 9.28743 13.658 9.10896C13.679 8.93049 13.7681 8.767 13.9065 8.65246C14.4126 8.27199 15.0405 8.04688 15.7214 8.04688C16.4023 8.04688 17.0302 8.27199 17.5363 8.65246C17.6095 8.70755 17.6712 8.77653 17.7178 8.85546C17.7643 8.93438 17.7949 9.02171 17.8077 9.11245C17.8206 9.20319 17.8154 9.29557 17.7925 9.38432C17.7697 9.47306 17.7295 9.55643 17.6744 9.62967C17.6193 9.7029 17.5504 9.76457 17.4714 9.81114C17.3925 9.85772 17.3052 9.88829 17.2144 9.90112C17.1237 9.91395 17.0313 9.90878 16.9426 9.8859C16.8538 9.86303 16.7705 9.8229 16.6972 9.76781C16.4256 9.56315 16.0879 9.44222 15.7214 9.44222C15.3549 9.44222 15.0172 9.56315 14.7456 9.76781ZM7.30373 9.76781C7.1553 9.8691 6.97354 9.9093 6.79623 9.88005C6.61893 9.8508 6.45971 9.75435 6.35168 9.61074C6.24365 9.46714 6.19511 9.28743 6.21615 9.10896C6.23719 8.93049 6.32619 8.767 6.46466 8.65246C6.97071 8.27199 7.59862 8.04688 8.27955 8.04688C8.96048 8.04688 9.58838 8.27199 10.0944 8.65246C10.2423 8.76372 10.34 8.92919 10.3659 9.11245C10.3918 9.29571 10.3438 9.48176 10.2326 9.62967C10.1213 9.77757 9.95584 9.87522 9.77257 9.90112C9.58931 9.92703 9.40326 9.87907 9.25536 9.76781C8.98373 9.56315 8.64606 9.44222 8.27955 9.44222C7.91304 9.44222 7.57536 9.56315 7.30373 9.76781ZM6.8842 12.2329H17.1168C17.3018 12.2329 17.4792 12.3064 17.6101 12.4373C17.7409 12.5681 17.8144 12.7456 17.8144 12.9306C17.8144 16.139 15.2088 18.7445 12.0005 18.7445C8.7921 18.7445 6.18652 16.139 6.18652 12.9306C6.18652 12.7456 6.26003 12.5681 6.39087 12.4373C6.52171 12.3064 6.69916 12.2329 6.8842 12.2329ZM7.63676 13.6283C7.97164 15.7362 9.79955 17.3492 12.0005 17.3492C14.2014 17.3492 16.0293 15.7362 16.3642 13.6283H7.63676Z"/>
</mask>
<path d="M14.7456 9.76781C14.5972 9.8691 14.4154 9.9093 14.2381 9.88005C14.0608 9.8508 13.9016 9.75435 13.7935 9.61074C13.6855 9.46714 13.637 9.28743 13.658 9.10896C13.679 8.93049 13.7681 8.767 13.9065 8.65246C14.4126 8.27199 15.0405 8.04688 15.7214 8.04688C16.4023 8.04688 17.0302 8.27199 17.5363 8.65246C17.6095 8.70755 17.6712 8.77653 17.7178 8.85546C17.7643 8.93438 17.7949 9.02171 17.8077 9.11245C17.8206 9.20319 17.8154 9.29557 17.7925 9.38432C17.7697 9.47306 17.7295 9.55643 17.6744 9.62967C17.6193 9.7029 17.5504 9.76457 17.4714 9.81114C17.3925 9.85772 17.3052 9.88829 17.2144 9.90112C17.1237 9.91395 17.0313 9.90878 16.9426 9.8859C16.8538 9.86303 16.7705 9.8229 16.6972 9.76781C16.4256 9.56315 16.0879 9.44222 15.7214 9.44222C15.3549 9.44222 15.0172 9.56315 14.7456 9.76781ZM7.30373 9.76781C7.1553 9.8691 6.97354 9.9093 6.79623 9.88005C6.61893 9.8508 6.45971 9.75435 6.35168 9.61074C6.24365 9.46714 6.19511 9.28743 6.21615 9.10896C6.23719 8.93049 6.32619 8.767 6.46466 8.65246C6.97071 8.27199 7.59862 8.04688 8.27955 8.04688C8.96048 8.04688 9.58838 8.27199 10.0944 8.65246C10.2423 8.76372 10.34 8.92919 10.3659 9.11245C10.3918 9.29571 10.3438 9.48176 10.2326 9.62967C10.1213 9.77757 9.95584 9.87522 9.77257 9.90112C9.58931 9.92703 9.40326 9.87907 9.25536 9.76781C8.98373 9.56315 8.64606 9.44222 8.27955 9.44222C7.91304 9.44222 7.57536 9.56315 7.30373 9.76781ZM6.8842 12.2329H17.1168C17.3018 12.2329 17.4792 12.3064 17.6101 12.4373C17.7409 12.5681 17.8144 12.7456 17.8144 12.9306C17.8144 16.139 15.2088 18.7445 12.0005 18.7445C8.7921 18.7445 6.18652 16.139 6.18652 12.9306C6.18652 12.7456 6.26003 12.5681 6.39087 12.4373C6.52171 12.3064 6.69916 12.2329 6.8842 12.2329ZM7.63676 13.6283C7.97164 15.7362 9.79955 17.3492 12.0005 17.3492C14.2014 17.3492 16.0293 15.7362 16.3642 13.6283H7.63676Z" fill="#96A0B5"/>
<path d="M14.7456 9.76781L26.7707 27.3891L27.1836 27.1073L27.5829 26.8064L14.7456 9.76781ZM13.9065 8.65246L1.08647 -8.39915L0.690556 -8.10149L0.308883 -7.78577L13.9065 8.65246ZM17.5363 8.65246L30.3613 -8.39543L30.3563 -8.39915L17.5363 8.65246ZM16.6972 9.76781L3.85991 26.8064L3.86606 26.8111L3.87221 26.8157L16.6972 9.76781ZM7.30373 9.76781L19.3288 27.3891L19.7418 27.1073L20.141 26.8064L7.30373 9.76781ZM6.46466 8.65246L-6.35539 -8.39915L-6.7513 -8.10149L-7.13298 -7.78577L6.46466 8.65246ZM10.0944 8.65246L22.9194 -8.39542L22.9145 -8.39915L10.0944 8.65246ZM9.25536 9.76781L-3.58195 26.8064L-3.5758 26.8111L-3.56965 26.8157L9.25536 9.76781ZM7.63676 13.6283V-7.70506H-17.3534L-13.4323 16.9755L7.63676 13.6283ZM16.3642 13.6283L37.4333 16.9755L41.3543 -7.70506H16.3642V13.6283ZM2.72051 -7.85345C7.10486 -10.8454 12.4735 -12.0327 17.7106 -11.1688L10.7656 30.9289C16.3573 31.8513 22.0895 30.5836 26.7707 27.3891L2.72051 -7.85345ZM17.7106 -11.1688C22.9477 -10.3048 27.6505 -7.45592 30.8414 -3.21427L-3.25434 22.4358C0.152687 26.9646 5.17388 30.0064 10.7656 30.9289L17.7106 -11.1688ZM30.8414 -3.21427C34.0324 1.02734 35.4661 6.33549 34.8446 11.6069L-7.52857 6.61099C-8.19218 12.2394 -6.66134 17.9069 -3.25434 22.4358L30.8414 -3.21427ZM34.8446 11.6069C34.2231 16.8783 31.5941 21.7075 27.5042 25.0907L0.308883 -7.78577C-4.05801 -4.17349 -6.86497 0.982655 -7.52857 6.61099L34.8446 11.6069ZM26.7266 25.7041C23.6681 28.0035 19.8272 29.3802 15.7214 29.3802V-13.2865C10.2538 -13.2865 5.15702 -11.4595 1.08647 -8.39915L26.7266 25.7041ZM15.7214 29.3802C11.6156 29.3802 7.77469 28.0035 4.71624 25.7041L30.3563 -8.39915C26.2858 -11.4595 21.1891 -13.2865 15.7214 -13.2865V29.3802ZM4.71128 25.7003C2.54567 24.0712 0.722254 22.0314 -0.654938 19.6977L36.0905 -1.98681C34.6201 -4.47838 32.6734 -6.65606 30.3613 -8.39542L4.71128 25.7003ZM-0.654938 19.6977C-2.03218 17.3639 -2.93627 14.7817 -3.31558 12.0985L38.9311 6.12643C38.5261 3.26171 37.5609 0.50483 36.0905 -1.98681L-0.654938 19.6977ZM-3.31558 12.0985C-3.69487 9.41531 -3.54198 6.68366 -2.86558 4.05949L38.4506 14.7091C39.1728 11.9075 39.336 8.99108 38.9311 6.12643L-3.31558 12.0985ZM-2.86558 4.05949C-2.18922 1.43551 -1.00264 -1.02971 0.626551 -3.19534L34.7223 22.4547C36.4617 20.1426 37.7285 17.5106 38.4506 14.7091L-2.86558 4.05949ZM0.626551 -3.19534C2.25572 -5.36095 4.29544 -7.18436 6.62916 -8.56156L28.3137 28.1838C30.8053 26.7135 32.983 24.7668 34.7223 22.4547L0.626551 -3.19534ZM6.62916 -8.56156C8.96295 -9.9388 11.5452 -10.8429 14.2284 -11.2222L20.2005 31.0244C23.0652 30.6195 25.8221 29.6542 28.3137 28.1838L6.62916 -8.56156ZM14.2284 -11.2222C16.9116 -11.6015 19.6432 -11.4486 22.2674 -10.7722L11.6177 30.544C14.4194 31.2662 17.3358 31.4294 20.2005 31.0244L14.2284 -11.2222ZM22.2674 -10.7722C24.8914 -10.0958 27.3567 -8.90923 29.5222 -7.28008L3.87221 26.8157C6.18426 28.555 8.81621 29.8219 11.6177 30.544L22.2674 -10.7722ZM29.5345 -7.27081C25.6804 -10.1746 20.864 -11.8911 15.7214 -11.8911V30.7756C11.3118 30.7756 7.17081 29.3009 3.85991 26.8064L29.5345 -7.27081ZM15.7214 -11.8911C10.5788 -11.8911 5.76244 -10.1746 1.90828 -7.27081L27.5829 26.8064C24.272 29.3009 20.131 30.7756 15.7214 30.7756V-11.8911ZM-4.72135 -7.85345C-0.337005 -10.8454 5.03164 -12.0327 10.2687 -11.1688L3.32376 30.9289C8.91544 31.8513 14.6476 30.5836 19.3288 27.3891L-4.72135 -7.85345ZM10.2687 -11.1688C15.5058 -10.3048 20.2086 -7.45592 23.3996 -3.21427L-10.6962 22.4358C-7.28917 26.9646 -2.26798 30.0064 3.32376 30.9289L10.2687 -11.1688ZM23.3996 -3.21427C26.5905 1.02737 28.0242 6.33553 27.4027 11.6069L-14.9704 6.61099C-15.634 12.2393 -14.1032 17.9069 -10.6962 22.4358L23.3996 -3.21427ZM27.4027 11.6069C26.7812 16.8783 24.1523 21.7075 20.0623 25.0907L-7.13298 -7.78577C-11.4999 -4.17347 -14.3068 0.982688 -14.9704 6.61099L27.4027 11.6069ZM19.2847 25.7041C16.2263 28.0035 12.3853 29.3802 8.27955 29.3802V-13.2865C2.81189 -13.2865 -2.28484 -11.4595 -6.35539 -8.39915L19.2847 25.7041ZM8.27955 29.3802C4.17375 29.3802 0.33283 28.0035 -2.72562 25.7041L22.9145 -8.39915C18.8439 -11.4595 13.7472 -13.2865 8.27955 -13.2865V29.3802ZM-2.73058 25.7003C-7.10404 22.4102 -9.9914 17.5175 -10.7574 12.0985L31.4892 6.12643C30.6714 0.340901 27.5887 -4.88276 22.9194 -8.39542L-2.73058 25.7003ZM-10.7574 12.0985C-11.5235 6.67944 -10.1054 1.17809 -6.81531 -3.19534L27.2805 22.4547C30.7931 17.7854 32.3071 11.912 31.4892 6.12643L-10.7574 12.0985ZM-6.81531 -3.19534C-3.52518 -7.56881 1.36755 -10.4562 6.78656 -11.2222L12.7586 31.0244C18.5441 30.2066 23.7678 27.1239 27.2805 22.4547L-6.81531 -3.19534ZM6.78656 -11.2222C12.2055 -11.9882 17.7069 -10.5702 22.0804 -7.28008L-3.56965 26.8157C1.09966 30.3284 6.97311 31.8423 12.7586 31.0244L6.78656 -11.2222ZM22.0927 -7.27081C18.2385 -10.1746 13.4222 -11.8911 8.27955 -11.8911V30.7756C3.86996 30.7756 -0.271049 29.3009 -3.58195 26.8064L22.0927 -7.27081ZM8.27955 -11.8911C3.13694 -11.8911 -1.67942 -10.1746 -5.53358 -7.27081L20.141 26.8064C16.8301 29.3009 12.6891 30.7756 8.27955 30.7756V-11.8911ZM6.8842 33.5663H17.1168V-9.10041H6.8842V33.5663ZM17.1168 33.5663C11.6438 33.5663 6.39507 31.3921 2.52514 27.5222L32.695 -2.64768C28.5634 -6.77929 22.9598 -9.10041 17.1168 -9.10041V33.5663ZM2.52514 27.5222C-1.34482 23.6523 -3.5189 18.4035 -3.5189 12.9306H39.1478C39.1478 7.08764 36.8267 1.48396 32.695 -2.64768L2.52514 27.5222ZM-3.5189 12.9306C-3.5189 4.35689 3.42677 -2.58878 12.0005 -2.58878V40.0779C26.9909 40.0779 39.1478 27.921 39.1478 12.9306H-3.5189ZM12.0005 -2.58878C20.5742 -2.58878 27.5199 4.35689 27.5199 12.9306H-15.1468C-15.1468 27.921 -2.98997 40.0779 12.0005 40.0779V-2.58878ZM27.5199 12.9306C27.5199 18.4035 25.3457 23.6523 21.4758 27.5222L-8.69408 -2.64768C-12.8257 1.48393 -15.1468 7.0876 -15.1468 12.9306H27.5199ZM21.4758 27.5222C17.6059 31.3921 12.3571 33.5663 6.8842 33.5663V-9.10041C1.04119 -9.10041 -4.56248 -6.77928 -8.69408 -2.64768L21.4758 27.5222ZM-13.4323 16.9755C-11.478 29.2768 -0.858143 38.6825 12.0005 38.6825V-3.98413C20.4572 -3.98413 27.4213 2.19558 28.7059 10.281L-13.4323 16.9755ZM12.0005 38.6825C24.8591 38.6825 35.479 29.2768 37.4333 16.9755L-4.7049 10.281C-3.42037 2.19558 3.54372 -3.98413 12.0005 -3.98413V38.6825ZM16.3642 -7.70506H7.63676V34.9616H16.3642V-7.70506Z" fill="#96A0B5" mask="url(#path-3-inside-2_1064_35448)"/>
</svg>
