<svg width="22" height="22" viewBox="0 0 22 22" fill="none" xmlns="http://www.w3.org/2000/svg">
<path d="M16.9879 7.99998C16.1928 7.99998 15.4302 7.68391 14.868 7.1213C14.3058 6.55869 13.9899 5.79563 13.9899 4.99999C13.9899 4.20434 14.3058 3.44128 14.868 2.87868C15.4302 2.31607 16.1928 2 16.9879 2C17.783 2 18.5456 2.31607 19.1078 2.87868C19.67 3.44128 19.9859 4.20434 19.9859 4.99999C19.9859 5.79563 19.67 6.55869 19.1078 7.1213C18.5456 7.68391 17.783 7.99998 16.9879 7.99998ZM18.0762 19.9999H11.4334C11.0974 20.0029 10.7665 19.9171 10.4743 19.7512C10.182 19.5852 9.93864 19.3451 9.76879 19.0549C9.60234 18.7753 9.51267 18.4567 9.50885 18.1312C9.50503 17.8058 9.58721 17.4851 9.74705 17.2017L13.0718 11.2325C13.243 10.9366 13.4889 10.691 13.7849 10.5203C14.0809 10.3495 14.4165 10.2596 14.7582 10.2596C15.0998 10.2596 15.4354 10.3495 15.7314 10.5203C16.0274 10.691 16.2733 10.9366 16.4445 11.2325L19.761 17.1972C19.9212 17.481 20.0036 17.8022 19.9999 18.1281C19.9962 18.4541 19.9066 18.7733 19.74 19.0534C19.5703 19.3436 19.3271 19.5838 19.035 19.75C18.7429 19.9162 18.4122 20.0024 18.0762 19.9999ZM8.47666 19.8154C8.17732 19.3112 8.01603 18.737 8.00906 18.1505C8.00209 17.5641 8.14967 16.9861 8.43694 16.4749L11.7624 10.505C12.034 10.0167 12.422 9.60315 12.8919 9.30122L11.6995 7.06623C11.4847 6.66816 11.1663 6.33564 10.7781 6.10389C10.3898 5.87213 9.94617 5.74977 9.4941 5.74977C9.04202 5.74977 8.59836 5.87213 8.21012 6.10389C7.82187 6.33564 7.5035 6.66816 7.28872 7.06623L2.30234 16.2912C2.09556 16.6738 1.99157 17.1036 2.00053 17.5385C2.0095 17.9734 2.13112 18.3986 2.3535 18.7723C2.57588 19.1461 2.89139 19.4557 3.2692 19.6709C3.647 19.8861 4.07414 19.9995 4.50885 19.9999H8.59358C8.55236 19.9399 8.51339 19.8784 8.47666 19.8154Z" fill="black"/>
</svg>
