<svg width="20" height="20" viewBox="0 0 20 20" fill="none" xmlns="http://www.w3.org/2000/svg">
<path fill-rule="evenodd" clip-rule="evenodd" d="M9.72088 0.0567115C9.44632 0.172609 9.26771 0.446282 9.26771 0.750147V12.4509C9.26771 12.8648 9.59642 13.2018 10.0002 13.2018C10.404 13.2018 10.7317 12.8648 10.7317 12.4509V2.56555L12.2461 4.1248C12.5311 4.41893 12.9938 4.41893 13.2807 4.12675C13.4241 3.98066 13.4963 3.78782 13.4963 3.59596C13.4963 3.4041 13.4241 3.21321 13.2826 3.06614L10.5189 0.220331C10.3099 0.00606766 9.99449 -0.0591858 9.72088 0.0567115ZM11.9489 18.5C12.3527 18.5 12.6804 18.836 12.6804 19.2499C12.6804 19.6638 12.3527 19.9998 11.9489 19.9998H4.71437C2.39058 19.9998 0.5 18.0617 0.5 15.6785V10.9325C0.5 8.54448 2.39533 6.6015 4.72482 6.6015H5.6093C6.01212 6.6015 6.33988 6.9375 6.33988 7.35142C6.33988 7.76534 6.01212 8.10134 5.6093 8.10134H4.72482C3.20096 8.10134 1.96306 9.37134 1.96306 10.9325V15.6785C1.96306 17.2348 3.19811 18.5 4.71437 18.5H11.9489ZM14.3916 8.10154C13.9879 8.10154 13.6601 7.76553 13.6601 7.35162C13.6601 6.9377 13.9879 6.60169 14.3916 6.60169H15.2856C17.6094 6.60169 19.5 8.53981 19.5 10.923V15.6699C19.5 18.057 17.6047 20 15.2752 20C14.8714 20 14.5446 19.664 14.5446 19.2501C14.5446 18.8362 14.8714 18.5002 15.2752 18.5002C16.799 18.5002 18.0369 17.2302 18.0369 15.6699V10.923C18.0369 9.36667 16.8028 8.10154 15.2856 8.10154H14.3916ZM8.66073 2.87818C8.66073 3.06907 8.58948 3.25996 8.44887 3.40604L7.7563 4.12383C7.47223 4.41795 7.00862 4.4199 6.72265 4.1287C6.43384 3.83652 6.43194 3.36319 6.71695 3.06809L7.40858 2.35128C7.69359 2.05618 8.15626 2.05423 8.44317 2.34544C8.58758 2.4925 8.66073 2.68534 8.66073 2.87818Z" fill="#343434"/>
</svg>
