<svg width="20" height="20" viewBox="0 0 20 20" fill="none" xmlns="http://www.w3.org/2000/svg">
<path fill-rule="evenodd" clip-rule="evenodd" d="M6.54783 9.77126C6.84983 9.47273 7.33683 9.47373 7.63682 9.77325L9.22981 11.3654V1.26622C9.22981 0.843306 9.5748 0.5 9.9998 0.5C10.4248 0.5 10.7708 0.843306 10.7708 1.26622V13.2212C10.7708 13.5317 10.5828 13.8113 10.2938 13.9297C10.0058 14.0482 9.6738 13.9815 9.4538 13.7626L6.54583 10.8549C6.39684 10.7057 6.32184 10.5096 6.32184 10.3136C6.32184 10.1176 6.39684 9.92053 6.54783 9.77126ZM11.6402 11.5911C11.4872 11.4418 11.4112 11.2448 11.4112 11.0468C11.4112 10.8527 11.4852 10.6577 11.6342 10.5074L12.3612 9.77504C12.6602 9.47453 13.1472 9.47154 13.4502 9.76907C13.7532 10.0656 13.7552 10.5502 13.4562 10.8527L12.7282 11.5861C12.4302 11.8866 11.9422 11.8896 11.6402 11.5911ZM5.21695 18.699C5.21695 18.2572 4.87195 17.8986 4.44696 17.8986C2.84397 17.8986 1.53998 16.543 1.53998 14.8766V9.80987C1.53998 8.15075 2.83997 6.79934 4.43696 6.79934H5.37795C5.80294 6.79934 6.14794 6.4407 6.14794 5.99889C6.14794 5.55709 5.80294 5.19844 5.37795 5.19844H4.43696C1.98998 5.19844 0 7.26714 0 9.80987V14.8766C0 17.4256 1.99498 19.4995 4.44696 19.4995C4.87195 19.4995 5.21695 19.1408 5.21695 18.699ZM20 9.82079V14.8875C20 17.4303 18.01 19.5 15.563 19.5H7.94912C7.52413 19.5 7.18013 19.1403 7.18013 18.6996C7.18013 18.2567 7.52413 17.8981 7.94912 17.8981H15.563C17.16 17.8981 18.46 16.5477 18.46 14.8875V9.82079C18.46 8.15439 17.156 6.79882 15.553 6.79882H14.6221C14.1971 6.79882 13.8531 6.44122 13.8531 5.99837C13.8531 5.55657 14.1971 5.19792 14.6221 5.19792H15.553C18.005 5.19792 20 7.27182 20 9.82079Z" fill="#343434"/>
</svg>
