<svg width="20" height="20" viewBox="0 0 20 20" fill="none" xmlns="http://www.w3.org/2000/svg">
<path fill-rule="evenodd" clip-rule="evenodd" d="M0 9.99951C0 4.48051 4.48 -0.000488281 10 -0.000488281C15.53 -0.000488281 20 4.48051 20 9.99951C20 15.5205 15.53 19.9995 10 19.9995C4.48 19.9995 0 15.5205 0 9.99951ZM8.2832 12.9029C8.4292 13.0499 8.6222 13.1229 8.8132 13.1229C9.0052 13.1229 9.1972 13.0499 9.3432 12.9029L14.0892 8.15695C14.3822 7.86395 14.3822 7.38995 14.0892 7.09695C13.7962 6.80395 13.3222 6.80395 13.0292 7.09695L8.8132 11.3119L6.9692 9.46995C6.6762 9.17695 6.2022 9.17695 5.9092 9.46995C5.6162 9.76295 5.6162 10.2369 5.9092 10.5299L8.2832 12.9029Z" fill="#1C8F3C"/>
</svg>
