<svg width="20" height="20" viewBox="0 0 20 20" fill="none" xmlns="http://www.w3.org/2000/svg">
<path fill-rule="evenodd" clip-rule="evenodd" d="M0 9.99951C0 4.48051 4.48 -0.000488281 10 -0.000488281C15.53 -0.000488281 20 4.48051 20 9.99951C20 15.5205 15.53 19.9995 10 19.9995C4.48 19.9995 0 15.5205 0 9.99951ZM10.0099 7.07959C9.51988 7.07959 9.12988 6.67959 9.12988 6.19959C9.12988 5.71959 9.51988 5.32959 9.99988 5.32959C10.4899 5.32959 10.8799 5.71959 10.8799 6.19959C10.8799 6.67959 10.4899 7.07959 10.0099 7.07959ZM9.12012 8.95959C9.12012 8.48059 9.52012 8.07959 10.0001 8.07959C10.4801 8.07959 10.8701 8.48059 10.8701 8.95959V13.3796C10.8701 13.8606 10.4801 14.2496 10.0001 14.2496C9.52012 14.2496 9.12012 13.8606 9.12012 13.3796V8.95959Z" fill="#F3A533"/>
</svg>
