<svg width="23" height="22" viewBox="0 0 23 22" fill="none" xmlns="http://www.w3.org/2000/svg">
<path d="M6.66933 18.059C7.421 17.2523 8.56683 17.3165 9.22683 18.1965L10.1527 19.434C10.8952 20.4148 12.096 20.4148 12.8385 19.434L13.7643 18.1965C14.4243 17.3165 15.5702 17.2523 16.3218 18.059C17.9535 19.8007 19.2827 19.2231 19.2827 16.7848V6.45398C19.2918 2.75982 18.4302 1.83398 14.9652 1.83398H8.03516C4.57016 1.83398 3.7085 2.75982 3.7085 6.45398V16.7756C3.7085 19.2231 5.04683 19.7915 6.66933 18.059Z" stroke="black" stroke-width="1.5" stroke-linecap="round" stroke-linejoin="round"/>
<path d="M7.92156 10.0833H7.92979" stroke="black" stroke-width="2" stroke-linecap="round" stroke-linejoin="round"/>
<path d="M10.4902 10.084H15.5319" stroke="black" stroke-width="1.5" stroke-linecap="round" stroke-linejoin="round"/>
<path d="M7.92156 6.41732H7.92979" stroke="black" stroke-width="2" stroke-linecap="round" stroke-linejoin="round"/>
<path d="M10.4902 6.41602H15.5319" stroke="black" stroke-width="1.5" stroke-linecap="round" stroke-linejoin="round"/>
</svg>
