<svg width="175" height="79" viewBox="0 0 175 79" fill="none" xmlns="http://www.w3.org/2000/svg">
<path d="M46.2861 4.49609V11.4121H45.5522C43.9818 9.68068 42.3996 8.36483 40.8054 7.4669C39.2088 6.56897 37.2739 5.97433 35.0005 5.6806C32.7248 5.38208 29.72 5.23163 25.9835 5.23163V54.6273C25.9835 57.29 26.2409 58.9999 26.7556 59.7569C27.2703 60.5164 27.6349 60.8937 27.8517 60.8937V61.6292H18.3486V60.8937C18.6203 60.8937 18.9991 60.5164 19.4829 59.7569C19.9714 58.9999 20.2168 57.29 20.2168 54.6273V5.23163C16.5376 5.23163 13.547 5.38208 11.2475 5.6806C8.94554 5.97433 7.00821 6.56897 5.43309 7.4669C3.86274 8.36483 2.29238 9.68068 0.724412 11.4121H0V4.49609H46.2861Z" fill="black"/>
<path d="M98.9049 23.1281V22.3926H105.806V23.1281C105.208 23.1281 104.34 23.7395 103.204 24.9622C102.072 26.1801 100.721 28.659 99.1528 32.4035L89.7259 55.1956L92.4043 61.6244H86.3135L75.4378 35.2597L67.1547 55.1956L69.8331 61.6244H63.7424L50.5028 29.7193C49.8546 28.0954 49.123 26.5933 48.3105 25.2105C47.4955 23.8231 46.7663 23.1281 46.1182 23.1281V22.3926H55.4593V23.1281C55.078 23.1281 54.9112 23.5771 54.9636 24.475C55.0208 25.3682 55.5379 27.0064 56.5173 29.3945L66.7448 54.2213L75.0279 34.3618L73.1597 29.7193C72.4544 28.0954 71.6942 26.5933 70.8816 25.2105C70.0738 23.8231 69.347 23.1281 68.6989 23.1281V22.3926H78.1162V23.1281C77.7349 23.1281 77.5562 23.5771 77.5824 24.475C77.6134 25.3682 78.1162 27.0064 79.0885 29.3945L89.3255 54.2213L98.7429 31.5916C99.8224 28.9885 100.387 26.9276 100.44 25.4111C100.497 23.8899 99.9844 23.1281 98.9049 23.1281Z" fill="black"/>
<path d="M105.48 25.9713L105.232 25.3218L112.867 22.3892V54.6191C112.867 57.2818 113.124 58.9917 113.639 59.7488C114.154 60.5082 114.518 60.8855 114.735 60.8855V61.621H105.318V60.8855C105.585 60.8855 105.975 60.5082 106.49 59.7488C107.005 58.9917 107.262 57.2818 107.262 54.6191V29.4771C107.045 28.0132 106.747 27.0651 106.366 26.6305C105.99 26.191 105.694 25.9713 105.48 25.9713ZM109.454 15.798C108.425 15.798 107.531 15.4207 106.776 14.6612C106.018 13.9042 105.642 13.0087 105.642 11.977C105.642 10.888 106.018 9.97816 106.776 9.24501C107.531 8.51425 108.425 8.14648 109.454 8.14648C110.534 8.14648 111.439 8.51425 112.171 9.24501C112.9 9.97816 113.267 10.888 113.267 11.977C113.267 13.0087 112.9 13.9042 112.171 14.6612C111.439 15.4207 110.534 15.798 109.454 15.798Z" fill="black"/>
<path d="M142.673 37.0454H142.264C142.314 35.6889 141.892 34.1987 140.996 32.5748C140.105 30.9461 138.918 29.4106 137.431 27.9705C135.944 26.5329 134.305 25.3794 132.513 24.5126C130.725 23.6481 128.941 23.2564 127.156 23.3376C125.369 23.414 123.746 24.214 122.285 25.7353C121.146 26.8768 120.619 28.2189 120.703 29.7664C120.784 31.3091 121.42 32.7038 122.609 33.9504C123.529 34.8746 124.897 35.7988 126.708 36.7206C128.524 37.6448 130.921 38.4854 133.895 39.2424C136.118 39.8418 137.986 40.5487 139.499 41.3631C141.017 42.1726 142.264 43.0395 143.236 43.9613C144.804 45.5351 145.724 47.2999 145.991 49.2534C146.262 51.2092 145.859 53.1603 144.78 55.109C143.641 57.1222 142.206 58.6148 140.472 59.5891C138.742 60.7306 136.688 61.5426 134.305 62.025C131.922 62.5145 129.701 62.7056 127.642 62.5981C125.697 62.4381 123.653 62.0059 121.513 61.299C119.378 60.5921 117.143 59.5604 114.812 58.204L114.164 57.8028L116.109 48.7662L116.766 48.9286C116.657 49.5782 116.873 50.4474 117.414 51.5364C117.953 52.6206 118.601 53.6761 119.359 54.7078C120.121 55.7395 120.743 56.4726 121.227 56.9049C122.314 57.9365 123.517 58.7772 124.84 59.4267C126.167 60.0763 127.508 60.5396 128.862 60.8118C130.216 61.0793 131.555 61.1891 132.884 61.1366C134.212 61.0793 135.47 60.8882 136.659 60.5635C137.307 60.4058 137.912 60.2052 138.48 59.9617C139.051 59.7133 139.607 59.4267 140.148 59.1019C140.743 58.6697 141.234 58.2613 141.615 57.8792C141.99 57.447 142.326 56.9885 142.626 56.5037C142.924 56.0141 143.126 55.4959 143.236 54.9466C143.293 54.5717 143.305 54.18 143.274 53.7717C143.248 53.3657 143.181 52.9693 143.074 52.5872C142.583 51.1806 141.649 50.0558 140.271 49.2152C138.892 48.3745 137.31 47.6844 135.525 47.1423C133.737 46.5954 131.924 46.0509 130.082 45.5088C127.482 44.7518 125.207 43.6819 123.257 42.2992C121.313 40.9117 119.864 39.2973 118.911 37.4561C117.962 35.6101 117.681 33.6542 118.063 31.5909C118.444 29.5276 119.688 27.4404 121.799 25.3245C123.203 23.8606 125.042 22.9412 127.318 22.5639C129.591 22.1818 131.934 22.1961 134.343 22.6021C136.75 23.0104 138.901 23.6767 140.796 24.5985C142.695 25.5156 143.998 26.5735 144.704 27.7699L142.673 37.0454Z" fill="black"/>
<path d="M145.588 22.963V22.3899C145.912 22.3899 146.494 22.2991 147.333 22.1129C148.171 21.9218 149.063 21.4896 150.011 20.8137C150.957 20.1331 151.755 19.0346 152.404 17.5181C153.056 15.9969 153.385 13.9049 153.385 11.2422H159.066C159.066 14.4972 158.401 17.0071 157.074 18.7695C155.752 20.5343 153.817 21.7403 151.269 22.3899H163.451V22.963H156.388V46.4811C156.388 47.4626 156.44 48.6304 156.55 49.9869C156.657 51.3433 156.886 52.7141 157.236 54.0944C157.591 55.4771 158.106 56.6975 158.78 57.753C159.459 58.8109 160.367 59.5298 161.506 59.9119C163.074 60.4038 164.537 60.2557 165.891 59.4724C167.244 58.6844 168.448 57.6097 169.504 56.2533C170.557 54.8968 171.355 53.6216 171.896 52.4227C172.225 51.6657 172.554 50.8657 172.878 50.0251C173.202 49.1845 173.471 48.3033 173.688 47.3791H174.422C174.148 48.3534 173.862 49.2895 173.564 50.1875C173.264 51.0854 172.928 51.9141 172.554 52.6711C171.898 54.1374 171.043 55.5894 169.99 57.027C168.934 58.4599 167.688 59.6396 166.253 60.5614C164.823 61.4856 163.213 61.9465 161.421 61.9465C158.497 61.9465 156.264 61.1728 154.72 59.6253C153.18 58.0778 152.127 56.1148 151.555 53.7314C150.988 51.3433 150.707 48.9266 150.707 46.4811V27.9303C150.707 26.5738 150.245 25.4085 149.325 24.4341C148.403 23.455 147.156 22.963 145.588 22.963Z" fill="black"/>
<path d="M69.3147 73.8685H68.3138L68.3043 69.0731L66.2836 73.1998H65.5782L63.5575 69.0731V73.8685H62.5376V67.4492H63.8244L65.9309 71.7096L68.0374 67.4492H69.3147V73.8685Z" fill="black"/>
<path d="M79.2041 68.4236H75.7155V70.1526H78.8419V71.1269H75.7155V72.8941H79.3185V73.8685H74.6289V67.4492H79.2041V68.4236Z" fill="black"/>
<path d="M84.2573 67.4492H86.8881C87.846 67.4492 88.6372 67.7525 89.2615 68.3567C89.8834 68.9633 90.1956 69.7299 90.1956 70.6588C90.1956 71.5902 89.8811 72.3568 89.252 72.961C88.6276 73.5676 87.8317 73.8685 86.8595 73.8685H84.2573V67.4492ZM85.3439 68.4236V72.8941H86.9167C87.5458 72.8941 88.0653 72.6887 88.4799 72.2732C88.8993 71.8529 89.109 71.318 89.109 70.6684C89.109 70.0188 88.8921 69.4839 88.4608 69.0636C88.0343 68.6385 87.5029 68.4236 86.869 68.4236H85.3439Z" fill="black"/>
<path d="M96.0622 73.8685H94.9756V67.4492H96.0622V73.8685Z" fill="black"/>
<path d="M105.501 72.4165H102.269L101.659 73.8685H100.535L103.366 67.4492H104.471L107.274 73.8685H106.12L105.501 72.4165ZM105.091 71.4612L103.88 68.6051L102.679 71.4612H105.091Z" fill="black"/>
</svg>
