<svg width="111" height="50" viewBox="0 0 111 50" fill="none" xmlns="http://www.w3.org/2000/svg">
<path d="M29.3586 2.84375V7.22094H28.8931C27.897 6.12513 26.8934 5.29232 25.8823 4.72401C24.8696 4.1557 23.6423 3.77934 22.2003 3.59343C20.7569 3.4045 18.8509 3.30928 16.481 3.30928V34.5724C16.481 36.2576 16.6442 37.3398 16.9707 37.819C17.2972 38.2996 17.5284 38.5384 17.666 38.5384V39.004H11.6383V38.5384C11.8106 38.5384 12.0509 38.2996 12.3577 37.819C12.6676 37.3398 12.8232 36.2576 12.8232 34.5724V3.30928C10.4895 3.30928 8.59266 3.4045 7.1341 3.59343C5.67403 3.77934 4.44521 4.1557 3.44613 4.72401C2.45008 5.29232 1.45403 6.12513 0.459484 7.22094H0V2.84375H29.3586Z" fill="black"/>
<path d="M62.7338 14.6374V14.1719H67.111V14.6374C66.7317 14.6374 66.1815 15.0243 65.4605 15.7982C64.7426 16.5691 63.8856 18.138 62.891 20.5079L56.9117 34.9333L58.6106 39.0022H54.7473L47.849 22.3156L42.5951 34.9333L44.294 39.0022H40.4307L32.033 18.809C31.6219 17.7812 31.1579 16.8305 30.6425 15.9554C30.1256 15.0772 29.6631 14.6374 29.252 14.6374V14.1719H35.1769V14.6374C34.935 14.6374 34.8292 14.9216 34.8625 15.4899C34.8988 16.0552 35.2268 17.092 35.848 18.6035L42.3352 34.3166L47.589 21.7473L46.404 18.809C45.9566 17.7812 45.4745 16.8305 44.9591 15.9554C44.4467 15.0772 43.9857 14.6374 43.5746 14.6374V14.1719H49.5479V14.6374C49.306 14.6374 49.1927 14.9216 49.2093 15.4899C49.2289 16.0552 49.5479 17.092 50.1645 18.6035L56.6578 34.3166L62.6311 19.994C63.3158 18.3465 63.674 17.0421 63.7072 16.0824C63.7435 15.1196 63.4185 14.6374 62.7338 14.6374Z" fill="black"/>
<path d="M66.9043 16.4378L66.7471 16.0267L71.5898 14.1706V34.5693C71.5898 36.2546 71.753 37.3368 72.0795 37.8159C72.406 38.2966 72.6372 38.5354 72.7748 38.5354V39.0009H66.8015V38.5354C66.9708 38.5354 67.2186 38.2966 67.5451 37.8159C67.8716 37.3368 68.0348 36.2546 68.0348 34.5693V18.6566C67.8973 17.7301 67.7084 17.13 67.4665 16.855C67.2277 16.5769 67.0403 16.4378 66.9043 16.4378ZM69.4254 9.99897C68.7724 9.99897 68.2056 9.76016 67.7265 9.27952C67.2459 8.80038 67.007 8.23359 67.007 7.58063C67.007 6.89141 67.2459 6.31554 67.7265 5.85152C68.2056 5.38901 68.7724 5.15625 69.4254 5.15625C70.1101 5.15625 70.6844 5.38901 71.1484 5.85152C71.611 6.31554 71.8437 6.89141 71.8437 7.58063C71.8437 8.23359 71.611 8.80038 71.1484 9.27952C70.6844 9.76016 70.1101 9.99897 69.4254 9.99897Z" fill="black"/>
<path d="M90.4962 23.4461H90.2362C90.268 22.5876 90.0005 21.6445 89.4321 20.6167C88.8669 19.5859 88.1141 18.614 87.171 17.7026C86.2278 16.7927 85.188 16.0626 84.0513 15.514C82.9177 14.9668 81.7857 14.719 80.6536 14.7703C79.52 14.8187 78.4907 15.325 77.5641 16.2878C76.8417 17.0103 76.5076 17.8598 76.5605 18.8392C76.6119 19.8156 77.0155 20.6983 77.7697 21.4873C78.3531 22.0722 79.2207 22.6571 80.3694 23.2406C81.5212 23.8255 83.0417 24.3575 84.928 24.8367C86.3382 25.2161 87.5232 25.6634 88.4829 26.1789C89.4457 26.6912 90.2362 27.2399 90.8529 27.8233C91.8475 28.8194 92.4309 29.9363 92.6002 31.1727C92.7725 32.4106 92.517 33.6455 91.8323 34.8788C91.1099 36.153 90.2 37.0977 89.0996 37.7143C88.0023 38.4368 86.6994 38.9507 85.188 39.256C83.6765 39.5659 82.2678 39.6868 80.9619 39.6188C79.7286 39.5175 78.4317 39.2439 77.0744 38.7965C75.7202 38.3491 74.3024 37.6962 72.8242 36.8377L72.4131 36.5838L73.6464 30.8644L74.0636 30.9672C73.9941 31.3783 74.1316 31.9285 74.4747 32.6177C74.8163 33.3039 75.2274 33.972 75.7081 34.6249C76.1917 35.2779 76.5862 35.7419 76.8931 36.0154C77.5823 36.6684 78.3456 37.2004 79.1844 37.6115C80.0263 38.0227 80.8773 38.3159 81.7358 38.4882C82.5943 38.6575 83.4437 38.727 84.2871 38.6938C85.129 38.6575 85.9271 38.5366 86.6813 38.331C87.0924 38.2312 87.4763 38.1043 87.836 37.9501C88.1988 37.7929 88.551 37.6115 88.8941 37.406C89.2719 37.1324 89.5833 36.874 89.8251 36.6321C90.0624 36.3585 90.2755 36.0683 90.466 35.7615C90.6549 35.4517 90.7834 35.1237 90.8529 34.776C90.8892 34.5387 90.8967 34.2909 90.8771 34.0324C90.8605 33.7755 90.8182 33.5246 90.7501 33.2827C90.4388 32.3925 89.8463 31.6806 88.9727 31.1485C88.0975 30.6165 87.0939 30.1797 85.9618 29.8366C84.8282 29.4905 83.678 29.1459 82.5096 28.8028C80.8606 28.3236 79.4172 27.6465 78.1808 26.7713C76.9475 25.8932 76.0285 24.8714 75.4239 23.7061C74.8224 22.5377 74.644 21.2999 74.8858 19.994C75.1277 18.6881 75.9167 17.367 77.2558 16.0279C78.1461 15.1014 79.3129 14.5194 80.7564 14.2806C82.1983 14.0388 83.6841 14.0479 85.2121 14.3048C86.7387 14.5633 88.1036 14.985 89.3052 15.5684C90.5098 16.1488 91.3366 16.8184 91.784 17.5756L90.4962 23.4461Z" fill="black"/>
<path d="M92.3438 14.5315V14.1688C92.5493 14.1688 92.9181 14.1113 93.4501 13.9935C93.9822 13.8725 94.5475 13.599 95.149 13.1712C95.7491 12.7405 96.2554 12.0452 96.6665 11.0854C97.0807 10.1226 97.2893 8.79856 97.2893 7.11328H100.893C100.893 9.1734 100.471 10.7619 99.629 11.8774C98.7901 12.9944 97.5628 13.7577 95.9471 14.1688H103.674V14.5315H99.1937V29.4164C99.1937 30.0376 99.2269 30.7767 99.2965 31.6352C99.3645 32.4937 99.5096 33.3613 99.7318 34.2349C99.957 35.1101 100.283 35.8824 100.711 36.5505C101.142 37.2201 101.718 37.675 102.44 37.9169C103.435 38.2282 104.363 38.1345 105.221 37.6388C106.08 37.14 106.843 36.4598 107.513 35.6013C108.181 34.7428 108.687 33.9357 109.03 33.1769C109.239 32.6978 109.447 32.1915 109.653 31.6594C109.859 31.1274 110.029 30.5697 110.167 29.9847H110.632C110.459 30.6014 110.277 31.1939 110.088 31.7622C109.898 32.3305 109.685 32.855 109.447 33.3341C109.032 34.2622 108.489 35.1811 107.821 36.091C107.152 36.9979 106.361 37.7446 105.451 38.328C104.544 38.9129 103.523 39.2046 102.386 39.2046C100.531 39.2046 99.1151 38.7149 98.1357 37.7355C97.1593 36.7561 96.4912 35.5136 96.1284 34.0052C95.7687 32.4937 95.5904 30.9641 95.5904 29.4164V17.6754C95.5904 16.8169 95.2971 16.0793 94.7137 15.4626C94.1288 14.8429 93.3383 14.5315 92.3438 14.5315Z" fill="black"/>
<path d="M43.9656 46.7523H43.3308L43.3247 43.7172L42.043 46.3291H41.5956L40.3139 43.7172V46.7523H39.667V42.6895H40.4832L41.8193 45.3859L43.1554 42.6895H43.9656V46.7523Z" fill="black"/>
<path d="M50.2379 43.3061H48.0252V44.4004H50.0082V45.0171H48.0252V46.1356H50.3105V46.7523H47.3359V42.6895H50.2379V43.3061Z" fill="black"/>
<path d="M53.4434 42.6895H55.112C55.7196 42.6895 56.2214 42.8814 56.6174 43.2638C57.0119 43.6477 57.2099 44.1329 57.2099 44.7209C57.2099 45.3103 57.0104 45.7955 56.6114 46.1779C56.2154 46.5618 55.7106 46.7523 55.0939 46.7523H53.4434V42.6895ZM54.1326 43.3061V46.1356H55.1302C55.5292 46.1356 55.8587 46.0056 56.1217 45.7426C56.3877 45.4766 56.5207 45.138 56.5207 44.7269C56.5207 44.3158 56.3832 43.9772 56.1096 43.7112C55.839 43.4422 55.502 43.3061 55.0999 43.3061H54.1326Z" fill="black"/>
<path d="M60.9304 46.7523H60.2412V42.6895H60.9304V46.7523Z" fill="black"/>
<path d="M66.9175 45.8333H64.8679L64.481 46.7523H63.7676L65.5632 42.6895H66.2645L68.042 46.7523H67.3104L66.9175 45.8333ZM66.6575 45.2287L65.8897 43.421L65.1279 45.2287H66.6575Z" fill="black"/>
</svg>
