<svg width="90" height="90" viewBox="0 0 90 90" fill="none" xmlns="http://www.w3.org/2000/svg">
<g filter="url(#filter0_d_29_2423)">
<circle cx="45" cy="40" r="30" fill="url(#paint0_linear_29_2423)"/>
</g>
<path fill-rule="evenodd" clip-rule="evenodd" d="M43.0565 25.7197C42.051 25.7197 41.1956 26.4139 40.9555 27.3496H49.0295C48.7894 26.4139 47.934 25.7197 46.9285 25.7197H43.0565ZM51.3107 27.3496H54.2821C57.4337 27.3496 60 29.9302 60 33.0994C60 33.0994 59.91 34.441 59.8799 36.3093C59.8769 36.4572 59.8049 36.602 59.6863 36.6896C58.9645 37.2193 58.3042 37.6569 58.2441 37.6871C55.7529 39.3471 52.8579 40.5152 49.7739 41.0962C49.5728 41.1354 49.3747 41.0313 49.2726 40.8532C48.4082 39.3652 46.7934 38.3964 44.9925 38.3964C43.2036 38.3964 41.5738 39.3547 40.6838 40.8442C40.5803 41.0192 40.3852 41.1204 40.1856 41.0826C37.1271 40.5001 34.2321 39.3336 31.7559 37.7022L30.3152 36.7062C30.1951 36.6307 30.1201 36.4949 30.1201 36.344C30.075 35.5743 30 33.0994 30 33.0994C30 29.9302 32.5663 27.3496 35.7179 27.3496H38.6743C38.9595 25.1614 40.8054 23.4561 43.0565 23.4561H46.9285C49.1796 23.4561 51.0255 25.1614 51.3107 27.3496ZM59.4895 39.5736L59.4295 39.6038C56.398 41.626 52.7512 42.9691 48.9242 43.5275C48.384 43.603 47.8437 43.2559 47.6936 42.7126C47.3635 41.4751 46.2979 40.6602 45.0223 40.6602H45.0073H44.9773C43.7016 40.6602 42.6361 41.4751 42.3059 42.7126C42.1559 43.2559 41.6156 43.603 41.0753 43.5275C37.2484 42.9691 33.6016 41.626 30.5701 39.6038C30.5551 39.5887 30.405 39.4981 30.2849 39.5736C30.1499 39.6491 30.1499 39.8302 30.1499 39.8302L30.2549 47.5267C30.2549 50.6958 32.8062 53.2614 35.9578 53.2614H54.0268C57.1784 53.2614 59.7297 50.6958 59.7297 47.5267L59.8497 39.8302C59.8497 39.8302 59.8497 39.6491 59.7146 39.5736C59.6396 39.5283 59.5496 39.5434 59.4895 39.5736ZM46.1178 45.8968C46.1178 46.5307 45.6226 47.0287 44.9923 47.0287C44.377 47.0287 43.8667 46.5307 43.8667 45.8968V43.9501C43.8667 43.3313 44.377 42.8182 44.9923 42.8182C45.6226 42.8182 46.1178 43.3313 46.1178 43.9501V45.8968Z" fill="white"/>
<defs>
<filter id="filter0_d_29_2423" x="0" y="0" width="90" height="90" filterUnits="userSpaceOnUse" color-interpolation-filters="sRGB">
<feFlood flood-opacity="0" result="BackgroundImageFix"/>
<feColorMatrix in="SourceAlpha" type="matrix" values="0 0 0 0 0 0 0 0 0 0 0 0 0 0 0 0 0 0 127 0" result="hardAlpha"/>
<feOffset dy="5"/>
<feGaussianBlur stdDeviation="7.5"/>
<feComposite in2="hardAlpha" operator="out"/>
<feColorMatrix type="matrix" values="0 0 0 0 1 0 0 0 0 0.415686 0 0 0 0 0.423529 0 0 0 0.3 0"/>
<feBlend mode="normal" in2="BackgroundImageFix" result="effect1_dropShadow_29_2423"/>
<feBlend mode="normal" in="SourceGraphic" in2="effect1_dropShadow_29_2423" result="shape"/>
</filter>
<linearGradient id="paint0_linear_29_2423" x1="45" y1="10" x2="45" y2="70" gradientUnits="userSpaceOnUse">
<stop stop-color="#FFACAE"/>
<stop offset="1" stop-color="#FF6365"/>
</linearGradient>
</defs>
</svg>
