<svg width="50" height="50" viewBox="0 0 50 50" fill="none" xmlns="http://www.w3.org/2000/svg">
<rect opacity="0.1" width="50" height="50" rx="10" fill="#2CA87F"/>
<path opacity="0.4" d="M16.0938 22.4983H33.9177" stroke="#2CA87F" stroke-width="1.5" stroke-linecap="round" stroke-linejoin="round"/>
<path opacity="0.4" fill-rule="evenodd" clip-rule="evenodd" d="M19.8086 26.4062C19.8086 25.992 20.1444 25.6562 20.5586 25.6562H20.5679C20.9821 25.6562 21.3179 25.992 21.3179 26.4062C21.3179 26.8205 20.9821 27.1562 20.5679 27.1562H20.5586C20.1444 27.1562 19.8086 26.8205 19.8086 26.4062ZM25.0039 25.6562C24.5897 25.6562 24.2539 25.992 24.2539 26.4062C24.2539 26.8205 24.5897 27.1562 25.0039 27.1562H25.0132C25.4274 27.1562 25.7632 26.8205 25.7632 26.4062C25.7632 25.992 25.4274 25.6562 25.0132 25.6562H25.0039ZM29.4414 25.6562C29.0272 25.6562 28.6914 25.992 28.6914 26.4062C28.6914 26.8205 29.0272 27.1562 29.4414 27.1562H29.4507C29.8649 27.1562 30.2007 26.8205 30.2007 26.4062C30.2007 25.992 29.8649 25.6562 29.4507 25.6562H29.4414ZM29.4414 29.543C29.0272 29.543 28.6914 29.8788 28.6914 30.293C28.6914 30.7072 29.0272 31.043 29.4414 31.043H29.4507C29.8649 31.043 30.2007 30.7072 30.2007 30.293C30.2007 29.8788 29.8649 29.543 29.4507 29.543H29.4414ZM24.2539 30.293C24.2539 29.8788 24.5897 29.543 25.0039 29.543H25.0132C25.4274 29.543 25.7632 29.8788 25.7632 30.293C25.7632 30.7072 25.4274 31.043 25.0132 31.043H25.0039C24.5897 31.043 24.2539 30.7072 24.2539 30.293ZM20.5586 29.543C20.1444 29.543 19.8086 29.8788 19.8086 30.293C19.8086 30.7072 20.1444 31.043 20.5586 31.043H20.5679C20.9821 31.043 21.3179 30.7072 21.3179 30.293C21.3179 29.8788 20.9821 29.543 20.5679 29.543H20.5586Z" fill="#2CA87F"/>
<path d="M29.0452 15.0918V18.3833" stroke="#2CA87F" stroke-width="1.5" stroke-linecap="round" stroke-linejoin="round"/>
<path d="M20.9671 15.0918V18.3833" stroke="#2CA87F" stroke-width="1.5" stroke-linecap="round" stroke-linejoin="round"/>
<path fill-rule="evenodd" clip-rule="evenodd" d="M29.2383 16.6719H20.771C17.8343 16.6719 16 18.3082 16 21.316V30.3677C16 33.4228 17.8343 35.0969 20.771 35.0969H29.229C32.175 35.0969 34 33.4512 34 30.4434V21.316C34.0092 18.3082 32.1842 16.6719 29.2383 16.6719Z" stroke="#2CA87F" stroke-width="1.5" stroke-linecap="round" stroke-linejoin="round"/>
</svg>
