<svg width="20" height="20" viewBox="0 0 20 20" fill="none" xmlns="http://www.w3.org/2000/svg">
<g clip-path="url(#clip0_3649_4254)">
<path d="M8.00918 8.63C8.01012 8.91699 8.24301 9.14918 8.53 9.14918C8.53 9.14918 9.42332 9.14918 9.76832 9.13918C11.045 9.1175 11.9616 8.0075 11.9616 6.50086C11.9616 4.91754 11.0616 3.85254 9.72332 3.85254H8.52082C8.23289 3.85348 8 4.08711 8 4.37504L8.00918 8.63ZM9.72668 4.89414C10.6092 4.89414 10.9234 5.72746 10.9234 6.50082C10.9234 7.27418 10.5617 8.08414 9.75254 8.0975C9.58586 8.0975 9.30422 8.10332 9.04922 8.105L9.04504 4.89418L9.72668 4.89414Z" fill="black"/>
<mask id="path-2-outside-1_3649_4254" maskUnits="userSpaceOnUse" x="13" y="3" width="5" height="7" fill="black">
<rect fill="white" x="13" y="3" width="5" height="7"/>
<path d="M16.541 4.77197H14.5415V6.05371H16.2129C16.3678 6.05371 16.4829 6.08903 16.5581 6.15967C16.6356 6.22803 16.6743 6.32031 16.6743 6.43652C16.6743 6.55273 16.6356 6.64502 16.5581 6.71338C16.4806 6.78174 16.3656 6.81592 16.2129 6.81592H14.5415V8.4668C14.5415 8.67643 14.4937 8.83252 14.3979 8.93506C14.3045 9.03532 14.1838 9.08545 14.0356 9.08545C13.8853 9.08545 13.7622 9.03418 13.6665 8.93164C13.5731 8.8291 13.5264 8.67415 13.5264 8.4668V4.61133C13.5264 4.46549 13.548 4.34701 13.5913 4.25586C13.6346 4.16243 13.7018 4.09521 13.793 4.0542C13.8864 4.0109 14.0049 3.98926 14.1484 3.98926H16.541C16.7028 3.98926 16.8224 4.02572 16.8999 4.09863C16.9797 4.16927 17.0195 4.2627 17.0195 4.37891C17.0195 4.4974 16.9797 4.5931 16.8999 4.66602C16.8224 4.73665 16.7028 4.77197 16.541 4.77197Z"/>
</mask>
<path d="M16.541 4.77197H14.5415V6.05371H16.2129C16.3678 6.05371 16.4829 6.08903 16.5581 6.15967C16.6356 6.22803 16.6743 6.32031 16.6743 6.43652C16.6743 6.55273 16.6356 6.64502 16.5581 6.71338C16.4806 6.78174 16.3656 6.81592 16.2129 6.81592H14.5415V8.4668C14.5415 8.67643 14.4937 8.83252 14.3979 8.93506C14.3045 9.03532 14.1838 9.08545 14.0356 9.08545C13.8853 9.08545 13.7622 9.03418 13.6665 8.93164C13.5731 8.8291 13.5264 8.67415 13.5264 8.4668V4.61133C13.5264 4.46549 13.548 4.34701 13.5913 4.25586C13.6346 4.16243 13.7018 4.09521 13.793 4.0542C13.8864 4.0109 14.0049 3.98926 14.1484 3.98926H16.541C16.7028 3.98926 16.8224 4.02572 16.8999 4.09863C16.9797 4.16927 17.0195 4.2627 17.0195 4.37891C17.0195 4.4974 16.9797 4.5931 16.8999 4.66602C16.8224 4.73665 16.7028 4.77197 16.541 4.77197Z" fill="black"/>
<path d="M14.5415 4.77197V4.67197H14.4415V4.77197H14.5415ZM14.5415 6.05371H14.4415V6.15371H14.5415V6.05371ZM16.5581 6.15967L16.4896 6.23259L16.4919 6.23465L16.5581 6.15967ZM16.5581 6.71338L16.4919 6.6384L16.5581 6.71338ZM14.5415 6.81592V6.71592H14.4415V6.81592H14.5415ZM14.3979 8.93506L14.3248 8.86683L14.3248 8.86689L14.3979 8.93506ZM13.6665 8.93164L13.5926 8.99899L13.5934 8.99987L13.6665 8.93164ZM13.5913 4.25586L13.6816 4.29877L13.682 4.29791L13.5913 4.25586ZM13.793 4.0542L13.834 4.1454L13.835 4.14493L13.793 4.0542ZM16.8999 4.09863L16.8313 4.17149L16.8336 4.17349L16.8999 4.09863ZM16.8999 4.66602L16.9673 4.73991L16.9674 4.73982L16.8999 4.66602ZM16.541 4.67197H14.5415V4.87197H16.541V4.67197ZM14.4415 4.77197V6.05371H14.6415V4.77197H14.4415ZM14.5415 6.15371H16.2129V5.95371H14.5415V6.15371ZM16.2129 6.15371C16.3549 6.15371 16.4404 6.18633 16.4896 6.23255L16.6266 6.08678C16.5254 5.99173 16.3808 5.95371 16.2129 5.95371V6.15371ZM16.4919 6.23465C16.5451 6.28154 16.5743 6.34502 16.5743 6.43652H16.7743C16.7743 6.29561 16.7261 6.17451 16.6243 6.08468L16.4919 6.23465ZM16.5743 6.43652C16.5743 6.52803 16.5451 6.59151 16.4919 6.6384L16.6243 6.78836C16.7261 6.69853 16.7743 6.57744 16.7743 6.43652H16.5743ZM16.4919 6.6384C16.4398 6.68444 16.3526 6.71592 16.2129 6.71592V6.91592C16.3786 6.91592 16.5215 6.87904 16.6243 6.78836L16.4919 6.6384ZM16.2129 6.71592H14.5415V6.91592H16.2129V6.71592ZM14.4415 6.81592V8.4668H14.6415V6.81592H14.4415ZM14.4415 8.4668C14.4415 8.66337 14.3964 8.79016 14.3248 8.86683L14.4711 9.00329C14.5909 8.87488 14.6415 8.68949 14.6415 8.4668H14.4415ZM14.3248 8.86689C14.2519 8.94509 14.1585 8.98545 14.0356 8.98545V9.18545C14.209 9.18545 14.3571 9.12555 14.4711 9.00323L14.3248 8.86689ZM14.0356 8.98545C13.9107 8.98545 13.8149 8.9441 13.7396 8.86341L13.5934 8.99987C13.7095 9.12426 13.8598 9.18545 14.0356 9.18545V8.98545ZM13.7404 8.86429C13.6704 8.78746 13.6264 8.66127 13.6264 8.4668H13.4264C13.4264 8.68703 13.4757 8.87074 13.5926 8.99899L13.7404 8.86429ZM13.6264 8.4668V4.61133H13.4264V8.4668H13.6264ZM13.6264 4.61133C13.6264 4.47422 13.6469 4.3719 13.6816 4.29877L13.501 4.21295C13.4491 4.32211 13.4264 4.45677 13.4264 4.61133H13.6264ZM13.682 4.29791C13.7156 4.22559 13.7655 4.17621 13.834 4.14539L13.7519 3.96301C13.6381 4.01422 13.5537 4.09928 13.5006 4.21381L13.682 4.29791ZM13.835 4.14493C13.9111 4.10965 14.014 4.08926 14.1484 4.08926V3.88926C13.9957 3.88926 13.8616 3.91216 13.7509 3.96347L13.835 4.14493ZM14.1484 4.08926H16.541V3.88926H14.1484V4.08926ZM16.541 4.08926C16.6902 4.08926 16.7801 4.12319 16.8314 4.17145L16.9684 4.02581C16.8648 3.92824 16.7154 3.88926 16.541 3.88926V4.08926ZM16.8336 4.17349C16.8898 4.2233 16.9195 4.2884 16.9195 4.37891H17.1195C17.1195 4.23699 17.0695 4.11525 16.9662 4.02377L16.8336 4.17349ZM16.9195 4.37891C16.9195 4.47234 16.8893 4.54019 16.8324 4.59221L16.9674 4.73982C17.07 4.64601 17.1195 4.52245 17.1195 4.37891H16.9195ZM16.8325 4.59212C16.7813 4.63887 16.6909 4.67197 16.541 4.67197V4.87197C16.7147 4.87197 16.8636 4.83444 16.9673 4.73991L16.8325 4.59212Z" fill="black" mask="url(#path-2-outside-1_3649_4254)"/>
<path d="M3.43457 4.30691V8.69191C3.43457 8.97957 3.66777 9.21273 3.95539 9.21273C4.24301 9.21273 4.47621 8.97953 4.47621 8.69191V7.30609H5.17621C6.14731 7.30609 6.93454 6.51887 6.93454 5.54777C6.93454 4.57668 6.14731 3.78945 5.17621 3.78945L5.17121 3.78613H3.95039C3.91504 3.78676 3.72863 3.79359 3.58125 3.94648C3.44027 4.09273 3.43484 4.26922 3.43457 4.30691ZM5.17121 6.26109H4.47789L4.47289 4.82777H5.17121C5.56703 4.82758 5.88805 5.14828 5.88825 5.5441C5.88844 5.93992 5.56774 6.26094 5.17192 6.26113C5.17172 6.26109 5.17145 6.26109 5.17121 6.26109Z" fill="black"/>
<path d="M15.8333 0H4.16668C1.86664 0.00277344 0.00277344 1.86664 0 4.16668V15.8334C0.00277344 18.1334 1.86664 19.9973 4.16668 20H13.6192C14.7249 20.0032 15.786 19.5639 16.5659 18.78L18.7792 16.565C19.5631 15.7855 20.0027 14.7247 20 13.6192V4.16668C19.9973 1.86664 18.1334 0.00277344 15.8333 0ZM1.66668 15.8333V4.16668C1.66668 2.78598 2.78598 1.66668 4.16668 1.66668H15.8334C17.2141 1.66668 18.3334 2.78598 18.3334 4.16668V12.5H15C13.6193 12.5 12.5 13.6193 12.5 15V18.3333H4.16668C2.78594 18.3333 1.66668 17.2141 1.66668 15.8333ZM15.3875 17.6017C15.0525 17.9359 14.6289 18.1672 14.1667 18.2684V15C14.1667 14.5398 14.5398 14.1667 15 14.1667H18.2708C18.1677 14.6279 17.9367 15.0508 17.6041 15.3867L15.3875 17.6017Z" fill="black"/>
</g>
<defs>
<clipPath id="clip0_3649_4254">
<rect width="20" height="20" fill="white"/>
</clipPath>
</defs>
</svg>
