<svg width="22" height="22" viewBox="0 0 22 22" fill="none" xmlns="http://www.w3.org/2000/svg">
<path fill-rule="evenodd" clip-rule="evenodd" d="M9.81102 3.22638C9.19655 3.22638 8.67379 3.65338 8.52705 4.22891H13.4612C13.3144 3.65338 12.7917 3.22638 12.1772 3.22638H9.81102ZM14.8552 4.22891H16.6711C18.5971 4.22891 20.1654 5.81624 20.1654 7.7656C20.1654 7.7656 20.1103 8.59083 20.092 9.74002C20.0902 9.83099 20.0461 9.9201 19.9737 9.97394C19.5325 10.2998 19.129 10.569 19.0923 10.5875C17.5699 11.6086 15.8008 12.3271 13.9161 12.6845C13.7932 12.7086 13.6721 12.6446 13.6098 12.535C13.0815 11.6198 12.0947 11.0238 10.9941 11.0238C9.9009 11.0238 8.9049 11.6133 8.36105 12.5295C8.29776 12.6371 8.17854 12.6993 8.05656 12.6761C6.18746 12.3178 4.41832 11.6003 2.90507 10.5968L2.02463 9.98415C1.95126 9.93774 1.9054 9.8542 1.9054 9.76137C1.87789 9.28796 1.83203 7.7656 1.83203 7.7656C1.83203 5.81624 3.40032 4.22891 5.32628 4.22891H7.13302C7.30727 2.88292 8.43533 1.83398 9.81102 1.83398H12.1772C13.5529 1.83398 14.681 2.88292 14.8552 4.22891ZM19.8535 11.748L19.8169 11.7665C17.9643 13.0104 15.7357 13.8365 13.397 14.18C13.0668 14.2264 12.7366 14.0129 12.6449 13.6787C12.4432 12.9176 11.792 12.4163 11.0125 12.4163H11.0033H10.9849C10.2054 12.4163 9.55422 12.9176 9.35246 13.6787C9.26075 14.0129 8.93058 14.2264 8.60042 14.18C6.26175 13.8365 4.03313 13.0104 2.18054 11.7665C2.17137 11.7572 2.07966 11.7015 2.00629 11.748C1.92374 11.7944 1.92374 11.9058 1.92374 11.9058L1.98794 16.6399C1.98794 18.5893 3.54706 20.1673 5.47302 20.1673H16.5152C18.4412 20.1673 20.0003 18.5893 20.0003 16.6399L20.0737 11.9058C20.0737 11.9058 20.0737 11.7944 19.9911 11.748C19.9453 11.7201 19.8902 11.7294 19.8535 11.748ZM11.682 15.6374C11.682 16.0273 11.3793 16.3336 10.9941 16.3336C10.6181 16.3336 10.3063 16.0273 10.3063 15.6374V14.4399C10.3063 14.0593 10.6181 13.7437 10.9941 13.7437C11.3793 13.7437 11.682 14.0593 11.682 14.4399V15.6374Z" fill="black"/>
</svg>
