<svg width="22" height="22" viewBox="0 0 22 22" fill="none" xmlns="http://www.w3.org/2000/svg">
<rect width="22" height="22" fill="white"/>
<path d="M8.7085 12.6049C8.7085 13.494 9.39601 14.209 10.2393 14.209H11.9627C12.696 14.209 13.2918 13.5857 13.2918 12.8065C13.2918 11.9724 12.9252 11.6699 12.3843 11.4774L9.62516 10.5149C9.08433 10.3224 8.71767 10.029 8.71767 9.1857C8.71767 8.4157 9.31349 7.7832 10.0468 7.7832H11.7702C12.6135 7.7832 13.301 8.4982 13.301 9.38737" stroke="black" stroke-width="1.5" stroke-linecap="round" stroke-linejoin="round"/>
<path d="M11 6.875V15.125" stroke="black" stroke-width="1.5" stroke-linecap="round" stroke-linejoin="round"/>
<path d="M20.1668 11.0007C20.1668 16.0607 16.0602 20.1673 11.0002 20.1673C5.94016 20.1673 1.8335 16.0607 1.8335 11.0007C1.8335 5.94065 5.94016 1.83398 11.0002 1.83398" stroke="black" stroke-width="1.5" stroke-linecap="round" stroke-linejoin="round"/>
<path d="M15.5835 2.75V6.41667H19.2502" stroke="black" stroke-width="1.5" stroke-linecap="round" stroke-linejoin="round"/>
<path d="M20.1668 1.83398L15.5835 6.41732" stroke="black" stroke-width="1.5" stroke-linecap="round" stroke-linejoin="round"/>
</svg>
