<svg width="90" height="91" viewBox="0 0 90 91" fill="none" xmlns="http://www.w3.org/2000/svg">
<g filter="url(#filter0_d_29_2368)">
<circle cx="45" cy="40.8057" r="30" fill="url(#paint0_linear_29_2368)"/>
</g>
<path fill-rule="evenodd" clip-rule="evenodd" d="M40.3442 48.9874H35.4542C34.3692 48.9874 33.3287 48.5564 32.5615 47.7892C31.7943 47.022 31.3633 45.9815 31.3633 44.8965V33.9874C31.3633 32.9024 31.7943 31.8619 32.5615 31.0947C33.3287 30.3275 34.3692 29.8965 35.4542 29.8965H54.5451C55.6301 29.8965 56.6706 30.3275 57.4378 31.0947C58.205 31.8619 58.636 32.9024 58.636 33.9874V44.8965C58.636 45.9815 58.205 47.022 57.4378 47.7892C56.6706 48.5564 55.6301 48.9874 54.5451 48.9874H49.6551L45.9637 52.6788C45.8372 52.8055 45.6869 52.9061 45.5215 52.9747C45.3561 53.0433 45.1787 53.0786 44.9996 53.0786C44.8206 53.0786 44.6432 53.0433 44.4778 52.9747C44.3124 52.9061 44.1621 52.8055 44.0356 52.6788L40.3442 48.9874Z" fill="white"/>
<path d="M45.1725 34.2787C46.3965 34.2787 47.3745 34.6147 48.1065 35.2867C48.8505 35.9587 49.2225 36.8767 49.2225 38.0407C49.2225 39.2527 48.8385 40.1647 48.0705 40.7767C47.3025 41.3887 46.2825 41.6947 45.0105 41.6947L44.9385 43.1167H43.1565L43.0665 40.2907H43.6605C44.8245 40.2907 45.7125 40.1347 46.3245 39.8227C46.9485 39.5107 47.2605 38.9167 47.2605 38.0407C47.2605 37.4047 47.0745 36.9067 46.7025 36.5467C46.3425 36.1867 45.8385 36.0067 45.1905 36.0067C44.5425 36.0067 44.0325 36.1807 43.6605 36.5287C43.2885 36.8767 43.1025 37.3627 43.1025 37.9867H41.1765C41.1765 37.2667 41.3385 36.6247 41.6625 36.0607C41.9865 35.4967 42.4485 35.0587 43.0485 34.7467C43.6605 34.4347 44.3685 34.2787 45.1725 34.2787ZM44.0205 47.0948C43.6485 47.0948 43.3365 46.9688 43.0845 46.7167C42.8325 46.4647 42.7065 46.1528 42.7065 45.7808C42.7065 45.4087 42.8325 45.0967 43.0845 44.8447C43.3365 44.5927 43.6485 44.4667 44.0205 44.4667C44.3805 44.4667 44.6865 44.5927 44.9385 44.8447C45.1905 45.0967 45.3165 45.4087 45.3165 45.7808C45.3165 46.1528 45.1905 46.4647 44.9385 46.7167C44.6865 46.9688 44.3805 47.0948 44.0205 47.0948Z" fill="#9E8BFB"/>
<defs>
<filter id="filter0_d_29_2368" x="0" y="0.805664" width="90" height="90" filterUnits="userSpaceOnUse" color-interpolation-filters="sRGB">
<feFlood flood-opacity="0" result="BackgroundImageFix"/>
<feColorMatrix in="SourceAlpha" type="matrix" values="0 0 0 0 0 0 0 0 0 0 0 0 0 0 0 0 0 0 127 0" result="hardAlpha"/>
<feOffset dy="5"/>
<feGaussianBlur stdDeviation="7.5"/>
<feComposite in2="hardAlpha" operator="out"/>
<feColorMatrix type="matrix" values="0 0 0 0 0.333333 0 0 0 0 0.34902 0 0 0 0 0.807843 0 0 0 0.3 0"/>
<feBlend mode="normal" in2="BackgroundImageFix" result="effect1_dropShadow_29_2368"/>
<feBlend mode="normal" in="SourceGraphic" in2="effect1_dropShadow_29_2368" result="shape"/>
</filter>
<linearGradient id="paint0_linear_29_2368" x1="45" y1="10.8057" x2="45" y2="70.8057" gradientUnits="userSpaceOnUse">
<stop stop-color="#B09FFF"/>
<stop offset="1" stop-color="#8D79F6"/>
</linearGradient>
</defs>
</svg>
