<svg width="22" height="22" viewBox="0 0 22 22" fill="none" xmlns="http://www.w3.org/2000/svg">
<path fill-rule="evenodd" clip-rule="evenodd" d="M8.18209 15.0248H13.1194C13.4915 15.0248 13.8001 14.7132 13.8001 14.3373C13.8001 13.9615 13.4915 13.659 13.1194 13.659H8.18209C7.80998 13.659 7.5014 13.9615 7.5014 14.3373C7.5014 14.7132 7.80998 15.0248 8.18209 15.0248ZM11.2498 9.07565H8.18209C7.80998 9.07565 7.5014 9.38732 7.5014 9.76315C7.5014 10.139 7.80998 10.4415 8.18209 10.4415H11.2498C11.6219 10.4415 11.9304 10.139 11.9304 9.76315C11.9304 9.38732 11.6219 9.07565 11.2498 9.07565ZM17.7267 8.27413C17.9401 8.27167 18.1724 8.26898 18.3834 8.26898C18.6103 8.26898 18.7918 8.45232 18.7918 8.68148V16.0515C18.7918 18.3248 16.9676 20.1673 14.7167 20.1673H7.49232C5.13259 20.1673 3.2085 18.2332 3.2085 15.8498V5.96815C3.2085 3.69482 5.04183 1.83398 7.30173 1.83398H12.1483C12.3842 1.83398 12.5658 2.02648 12.5658 2.25565V5.20732C12.5658 6.88482 13.9362 8.25982 15.5971 8.26898C15.9851 8.26898 16.3271 8.27188 16.6264 8.27442C16.8592 8.2764 17.0662 8.27815 17.2489 8.27815C17.3781 8.27815 17.5456 8.27622 17.7267 8.27413ZM17.977 6.93615C17.231 6.9389 16.3515 6.93615 15.7189 6.92973C14.7151 6.92973 13.8883 6.09465 13.8883 5.08082V2.66448C13.8883 2.2694 14.363 2.07323 14.6343 2.35832C15.1259 2.87455 15.8016 3.5843 16.474 4.29066C17.1436 4.99411 17.8101 5.69419 18.2883 6.1964C18.5533 6.47415 18.3591 6.93523 17.977 6.93615Z" fill="black"/>
</svg>
