<svg width="22" height="22" viewBox="0 0 22 22" fill="none" xmlns="http://www.w3.org/2000/svg">
<path d="M6.16786 18.058C6.91953 17.2513 8.06536 17.3155 8.72536 18.1955L9.6512 19.433C10.3937 20.4138 11.5945 20.4138 12.337 19.433L13.2629 18.1955C13.9229 17.3155 15.0687 17.2513 15.8204 18.058C17.452 19.7997 18.7812 19.2222 18.7812 16.7838V6.45301C18.7904 2.75884 17.9287 1.83301 14.4637 1.83301H7.5337C4.0687 1.83301 3.20703 2.75884 3.20703 6.45301V16.7747C3.20703 19.2222 4.54536 19.7905 6.16786 18.058Z" fill="black" stroke="black" stroke-width="1.5" stroke-linecap="round" stroke-linejoin="round"/>
<path d="M7.42205 10.0833H7.43028" stroke="white" stroke-width="2" stroke-linecap="round" stroke-linejoin="round"/>
<path d="M9.99219 10.083H15.0339" stroke="white" stroke-width="1.5" stroke-linecap="round" stroke-linejoin="round"/>
<path d="M7.42205 6.41634H7.43028" stroke="white" stroke-width="2" stroke-linecap="round" stroke-linejoin="round"/>
<path d="M9.99219 6.41699H15.0339" stroke="white" stroke-width="1.5" stroke-linecap="round" stroke-linejoin="round"/>
</svg>
