<svg width="90" height="90" viewBox="0 0 90 90" fill="none" xmlns="http://www.w3.org/2000/svg">
<g filter="url(#filter0_d_29_2395)">
<circle cx="45" cy="40" r="30" fill="url(#paint0_linear_29_2395)"/>
</g>
<path d="M28.0546 55.7923H30.1638C30.7462 55.7923 31.2184 55.3124 31.2184 54.7205V42.9301H28.0546C27.4722 42.9301 27 43.41 27 44.002V54.7205C27 55.3124 27.4722 55.7923 28.0546 55.7923ZM54.5603 23.6367C49.9007 23.6367 46.1234 27.4757 46.1234 32.2115C46.1234 36.9472 49.9007 40.7863 54.5603 40.7863C59.2198 40.7863 62.9971 36.9472 62.9971 32.2115C62.9971 27.4757 59.2198 23.6367 54.5603 23.6367ZM56.3276 36.0692C56.0992 36.1852 55.8597 36.2766 55.6147 36.3458V36.642C55.6147 37.2339 55.1425 37.7138 54.5601 37.7138C53.9777 37.7138 53.5055 37.2339 53.5055 36.642V36.3793C53.0665 36.267 52.6571 36.0781 52.3103 35.8138C51.8444 35.4587 51.7499 34.7868 52.0994 34.3132C52.4489 33.8397 53.1099 33.7436 53.5758 34.0988C53.9977 34.4204 54.809 34.4443 55.3843 34.1519C55.6156 34.0343 55.7403 33.8928 55.7403 33.8195C55.7403 33.6912 55.7404 33.6714 55.6 33.5953C55.3248 33.446 54.8383 33.3543 54.3678 33.2656C53.7396 33.1471 53.09 33.0246 52.5271 32.7193C51.7052 32.2734 51.2707 31.5419 51.2707 30.6039C51.2707 29.6648 51.8248 28.8446 52.7908 28.3537C53.0197 28.238 53.259 28.1449 53.5055 28.076V27.7814C53.5055 27.1894 53.9777 26.7095 54.5601 26.7095C55.1425 26.7095 55.6147 27.1894 55.6147 27.7814V28.0438C56.0538 28.1562 56.4631 28.3452 56.8099 28.6095C57.2759 28.9647 57.3703 29.6366 57.0208 30.1101C56.6714 30.5837 56.0105 30.6797 55.5444 30.3245C55.1219 30.0024 54.3099 29.9786 53.7341 30.2711C53.5015 30.3892 53.3799 30.5279 53.3799 30.6038C53.3799 30.7322 53.3799 30.7519 53.5202 30.8281C53.7954 30.9773 54.282 31.0691 54.7525 31.1578C55.3807 31.2762 56.0302 31.3987 56.5932 31.704C57.4151 32.1499 57.8496 32.8814 57.8496 33.8195C57.8496 34.7576 57.2948 35.5776 56.3276 36.0692ZM46.0391 56.364H46.2712C49.8146 56.321 53.2104 55.2994 56.2056 53.4556L62.0902 49.2755C63.0814 48.568 63.2713 47.239 62.6175 46.2957C61.9425 45.3096 60.6348 45.0738 59.6857 45.7598L54.033 49.79C52.2191 50.8618 50.0045 51.0976 48.0007 50.4116L41.4973 48.2249C40.9489 48.0535 40.6536 47.4318 40.8435 46.8745C41.0121 46.3386 41.5605 46.0385 42.1089 46.1885C42.13 46.1885 49.4138 48.5895 49.4138 48.5895C50.6404 48.9631 51.7301 48.2578 52.0714 47.2175C52.4299 46.0813 51.8183 44.8808 50.7215 44.5165L40.8012 41.2152C38.6314 40.4123 35.7074 40.5782 33.3276 41.9307V53.9299L41.6027 55.8352C43.1186 56.1741 44.606 56.364 46.0391 56.364Z" fill="white"/>
<defs>
<filter id="filter0_d_29_2395" x="0" y="0" width="90" height="90" filterUnits="userSpaceOnUse" color-interpolation-filters="sRGB">
<feFlood flood-opacity="0" result="BackgroundImageFix"/>
<feColorMatrix in="SourceAlpha" type="matrix" values="0 0 0 0 0 0 0 0 0 0 0 0 0 0 0 0 0 0 127 0" result="hardAlpha"/>
<feOffset dy="5"/>
<feGaussianBlur stdDeviation="7.5"/>
<feComposite in2="hardAlpha" operator="out"/>
<feColorMatrix type="matrix" values="0 0 0 0 1 0 0 0 0 0.388235 0 0 0 0 0.388235 0 0 0 0.3 0"/>
<feBlend mode="normal" in2="BackgroundImageFix" result="effect1_dropShadow_29_2395"/>
<feBlend mode="normal" in="SourceGraphic" in2="effect1_dropShadow_29_2395" result="shape"/>
</filter>
<linearGradient id="paint0_linear_29_2395" x1="45" y1="10" x2="45" y2="70" gradientUnits="userSpaceOnUse">
<stop stop-color="#FF9364"/>
<stop offset="1" stop-color="#F25F33"/>
</linearGradient>
</defs>
</svg>
