<svg width="22" height="22" viewBox="0 0 22 22" fill="none" xmlns="http://www.w3.org/2000/svg">
<path fill-rule="evenodd" clip-rule="evenodd" d="M18.702 12.449C19.0299 12.6232 19.2828 12.8982 19.4608 13.1732C19.8074 13.7415 19.7793 14.4382 19.4421 15.0523L18.7863 16.1523C18.4397 16.739 17.7933 17.1057 17.1282 17.1057C16.8003 17.1057 16.4349 17.014 16.1352 16.8307C15.8916 16.6748 15.6106 16.6198 15.3108 16.6198C14.3834 16.6198 13.6058 17.3807 13.5777 18.2882C13.5777 19.3423 12.7159 20.1673 11.6386 20.1673H10.3645C9.27784 20.1673 8.41599 19.3423 8.41599 18.2882C8.39725 17.3807 7.61971 16.6198 6.69228 16.6198C6.38314 16.6198 6.1021 16.6748 5.86791 16.8307C5.56813 17.014 5.19341 17.1057 4.8749 17.1057C4.20041 17.1057 3.55402 16.739 3.20741 16.1523L2.56102 15.0523C2.21441 14.4565 2.19567 13.7415 2.54229 13.1732C2.69217 12.8982 2.97321 12.6232 3.29172 12.449C3.55402 12.3207 3.72265 12.1098 3.8819 11.8623C4.3503 11.074 4.06926 10.0382 3.27299 9.57065C2.34556 9.04815 2.04579 7.88398 2.57976 6.97648L3.20741 5.89482C3.75075 4.98732 4.91238 4.66648 5.84917 5.19815C6.66418 5.63815 7.72276 5.34482 8.20052 4.56565C8.35041 4.30898 8.43472 4.03398 8.41599 3.75898C8.39725 3.40148 8.5003 3.06232 8.67829 2.78732C9.0249 2.21898 9.65255 1.85232 10.3364 1.83398H11.6573C12.3505 1.83398 12.9782 2.21898 13.3248 2.78732C13.4934 3.06232 13.6058 3.40148 13.5777 3.75898C13.559 4.03398 13.6433 4.30898 13.7932 4.56565C14.271 5.34482 15.3295 5.63815 16.1539 5.19815C17.0813 4.66648 18.2523 4.98732 18.7863 5.89482L19.4139 6.97648C19.9573 7.88398 19.6575 9.04815 18.7207 9.57065C17.9244 10.0382 17.6434 11.074 18.1212 11.8623C18.2711 12.1098 18.4397 12.3207 18.702 12.449ZM8.35041 11.0098C8.35041 12.449 9.54014 13.5948 11.0109 13.5948C12.4817 13.5948 13.6433 12.449 13.6433 11.0098C13.6433 9.57065 12.4817 8.41565 11.0109 8.41565C9.54014 8.41565 8.35041 9.57065 8.35041 11.0098Z" fill="black"/>
</svg>
