<svg width="7" height="12" viewBox="0 0 7 12" fill="none" xmlns="http://www.w3.org/2000/svg">
<path d="M3.49705 7L2.24444 7C0.691574 7 0.0535393 7.78382 0.832317 8.74109L1.46097 9.51157L2.08962 10.2821C2.8684 11.2393 4.13978 11.2393 4.91855 10.2821L5.5472 9.51157L6.17586 8.74109C6.94056 7.78382 6.30722 7 4.74966 7L3.49705 7Z" fill="#343434"/>
<path d="M3.50295 4L4.75556 4C6.30843 4 6.94646 3.21618 6.16768 2.25891L5.53903 1.48843L4.91038 0.71795C4.1316 -0.239315 2.86023 -0.239316 2.08145 0.717949L1.4528 1.48843L0.824145 2.25891C0.0594418 3.21618 0.692785 4 2.25034 4L3.50295 4Z" fill="#343434"/>
</svg>
