<svg width="60" height="60" viewBox="0 0 60 60" fill="none" xmlns="http://www.w3.org/2000/svg">
<path d="M30 31.4645L40.6065 42.071L37.071 45.6065L32.5 41.0375V55H27.5V41.0325L22.9289 45.6065L19.3934 42.071L30 31.4645ZM30 5C38.9835 5 46.386 11.769 47.3853 20.4849C53.2145 22.0788 57.5 27.414 57.5 33.75C57.5 40.922 52.009 46.8115 45.0015 47.444L45.0023 42.411C49.2415 41.8035 52.5 38.1572 52.5 33.75C52.5 28.9175 48.5825 25 43.75 25C43.228 25 42.7168 25.0457 42.2218 25.135C42.404 24.2855 42.5 23.4039 42.5 22.5C42.5 15.5964 36.9035 10 30 10C23.0965 10 17.5 15.5964 17.5 22.5C17.5 23.4039 17.596 24.2855 17.7801 25.1332C17.2833 25.0457 16.772 25 16.25 25C11.4175 25 7.5 28.9175 7.5 33.75C7.5 38.0007 10.531 41.5435 14.5497 42.335L15.0001 42.4115L15.001 47.444C7.9924 46.813 2.5 40.923 2.5 33.75C2.5 27.414 6.7856 22.0788 12.6162 20.4853C13.614 11.769 21.0165 5 30 5Z" fill="black"/>
</svg>
