<svg width="20" height="21" viewBox="0 0 20 21" fill="none" xmlns="http://www.w3.org/2000/svg">
<path d="M19.4286 10.5C19.4286 15.7484 15.1896 20 9.96428 20C4.73899 20 0.5 15.7484 0.5 10.5C0.5 5.25161 4.73899 1 9.96428 1C15.1896 1 19.4286 5.25161 19.4286 10.5Z" fill="white" stroke="#1C8F3C"/>
<mask id="path-2-inside-1_2752_34771" fill="white">
<path d="M3.46896 9.09491C3.1554 10.5533 3.33836 12.0751 3.98856 13.4168C4.63875 14.7585 5.7186 15.8425 7.05531 16.4954C8.39202 17.1483 9.90832 17.3324 11.3616 17.0181C12.8149 16.7039 14.1211 15.9095 15.0713 14.762C16.0214 13.6146 16.5606 12.1805 16.6026 10.6891C16.6445 9.19773 16.1868 7.73536 15.3026 6.53597C14.4184 5.33658 13.1589 4.46951 11.7256 4.0735C10.2923 3.67748 8.76808 3.77542 7.3968 4.35163L7.65336 4.96657C8.88751 4.44798 10.2593 4.35983 11.5493 4.71625C12.8392 5.07266 13.9728 5.85303 14.7686 6.93248C15.5643 8.01193 15.9763 9.32806 15.9386 10.6703C15.9008 12.0125 15.4155 13.3032 14.5604 14.3359C13.7052 15.3686 12.5296 16.0836 11.2217 16.3664C9.91373 16.6492 8.54905 16.4836 7.34601 15.896C6.14298 15.3084 5.17111 14.3327 4.58594 13.1252C4.00076 11.9177 3.8361 10.5481 4.1183 9.23552L3.46896 9.09491Z"/>
</mask>
<path d="M3.46896 9.09491C3.1554 10.5533 3.33836 12.0751 3.98856 13.4168C4.63875 14.7585 5.7186 15.8425 7.05531 16.4954C8.39202 17.1483 9.90832 17.3324 11.3616 17.0181C12.8149 16.7039 14.1211 15.9095 15.0713 14.762C16.0214 13.6146 16.5606 12.1805 16.6026 10.6891C16.6445 9.19773 16.1868 7.73536 15.3026 6.53597C14.4184 5.33658 13.1589 4.46951 11.7256 4.0735C10.2923 3.67748 8.76808 3.77542 7.3968 4.35163L7.65336 4.96657C8.88751 4.44798 10.2593 4.35983 11.5493 4.71625C12.8392 5.07266 13.9728 5.85303 14.7686 6.93248C15.5643 8.01193 15.9763 9.32806 15.9386 10.6703C15.9008 12.0125 15.4155 13.3032 14.5604 14.3359C13.7052 15.3686 12.5296 16.0836 11.2217 16.3664C9.91373 16.6492 8.54905 16.4836 7.34601 15.896C6.14298 15.3084 5.17111 14.3327 4.58594 13.1252C4.00076 11.9177 3.8361 10.5481 4.1183 9.23552L3.46896 9.09491Z" stroke="#1C8F3C" stroke-width="3" mask="url(#path-2-inside-1_2752_34771)"/>
<ellipse cx="9.96693" cy="10.4993" rx="3.32142" ry="3.33333" fill="#1C8F3C"/>
</svg>
